<mxfile host="app.diagrams.net" modified="2024-05-09T06:55:35.587Z" agent="Mozilla/5.0 (Windows NT 10.0; Win64; x64) AppleWebKit/537.36 (KHTML, like Gecko) Chrome/124.0.0.0 Safari/537.36" etag="safKYzXD15X1iLWGW7su" version="24.3.1" type="device">
  <diagram name="Page-1" id="VMJgZDLOB1hl5SoNPfyr">
    <mxGraphModel dx="1434" dy="772" grid="1" gridSize="10" guides="1" tooltips="1" connect="1" arrows="1" fold="1" page="1" pageScale="1" pageWidth="850" pageHeight="1100" math="0" shadow="0">
      <root>
        <mxCell id="0" />
        <mxCell id="1" parent="0" />
        <mxCell id="s1b5WdfS_iwDhDCuZPvK-9" value="" style="shape=cylinder3;whiteSpace=wrap;html=1;boundedLbl=1;backgroundOutline=1;size=15;" vertex="1" parent="1">
          <mxGeometry x="300" y="170" width="60" height="80" as="geometry" />
        </mxCell>
        <mxCell id="s1b5WdfS_iwDhDCuZPvK-10" value="" style="shape=cylinder3;whiteSpace=wrap;html=1;boundedLbl=1;backgroundOutline=1;size=15;" vertex="1" parent="1">
          <mxGeometry x="320" y="190" width="60" height="80" as="geometry" />
        </mxCell>
        <mxCell id="s1b5WdfS_iwDhDCuZPvK-14" value="" style="endArrow=classic;html=1;rounded=0;exitX=1;exitY=0.5;exitDx=0;exitDy=0;exitPerimeter=0;entryX=0;entryY=1;entryDx=0;entryDy=0;" edge="1" parent="1" source="s1b5WdfS_iwDhDCuZPvK-10">
          <mxGeometry width="50" height="50" relative="1" as="geometry">
            <mxPoint x="661" y="410" as="sourcePoint" />
            <mxPoint x="447" y="230" as="targetPoint" />
          </mxGeometry>
        </mxCell>
        <mxCell id="s1b5WdfS_iwDhDCuZPvK-15" value="Incidencias + Product data" style="text;html=1;align=center;verticalAlign=middle;whiteSpace=wrap;rounded=0;" vertex="1" parent="1">
          <mxGeometry x="303" y="280" width="80" height="30" as="geometry" />
        </mxCell>
        <mxCell id="s1b5WdfS_iwDhDCuZPvK-16" value="Raw data" style="text;html=1;align=center;verticalAlign=middle;whiteSpace=wrap;rounded=0;" vertex="1" parent="1">
          <mxGeometry x="457" y="280" width="74" height="30" as="geometry" />
        </mxCell>
        <mxCell id="s1b5WdfS_iwDhDCuZPvK-17" value="" style="shape=image;verticalLabelPosition=bottom;labelBackgroundColor=default;verticalAlign=top;aspect=fixed;imageAspect=0;image=https://static.thenounproject.com/png/3732425-200.png;" vertex="1" parent="1">
          <mxGeometry x="457" y="180" width="90" height="90" as="geometry" />
        </mxCell>
        <mxCell id="s1b5WdfS_iwDhDCuZPvK-19" value="" style="shape=image;verticalLabelPosition=bottom;labelBackgroundColor=default;verticalAlign=top;aspect=fixed;imageAspect=0;image=https://cdn0.iconfinder.com/data/icons/office-icon-set-2/100/Noun_Project_100Icon_10px_grid-07-512.png;" vertex="1" parent="1">
          <mxGeometry x="611" y="180" width="92" height="92" as="geometry" />
        </mxCell>
        <mxCell id="s1b5WdfS_iwDhDCuZPvK-20" value="" style="endArrow=classic;html=1;rounded=0;exitX=1;exitY=0.5;exitDx=0;exitDy=0;" edge="1" parent="1" source="s1b5WdfS_iwDhDCuZPvK-17" target="s1b5WdfS_iwDhDCuZPvK-19">
          <mxGeometry width="50" height="50" relative="1" as="geometry">
            <mxPoint x="390" y="240" as="sourcePoint" />
            <mxPoint x="457" y="240" as="targetPoint" />
          </mxGeometry>
        </mxCell>
        <mxCell id="s1b5WdfS_iwDhDCuZPvK-21" value="Pre-processed&lt;div&gt;data&lt;/div&gt;" style="text;html=1;align=center;verticalAlign=middle;whiteSpace=wrap;rounded=0;" vertex="1" parent="1">
          <mxGeometry x="616.5" y="280" width="81" height="30" as="geometry" />
        </mxCell>
        <mxCell id="s1b5WdfS_iwDhDCuZPvK-22" value="Collect" style="text;html=1;align=center;verticalAlign=middle;whiteSpace=wrap;rounded=0;" vertex="1" parent="1">
          <mxGeometry x="380" y="198" width="74" height="30" as="geometry" />
        </mxCell>
        <mxCell id="s1b5WdfS_iwDhDCuZPvK-24" value="Pre-process" style="text;html=1;align=center;verticalAlign=middle;whiteSpace=wrap;rounded=0;" vertex="1" parent="1">
          <mxGeometry x="542.5" y="198" width="74" height="30" as="geometry" />
        </mxCell>
        <mxCell id="s1b5WdfS_iwDhDCuZPvK-38" value="" style="shape=partialRectangle;html=1;whiteSpace=wrap;connectable=0;strokeColor=inherit;overflow=hidden;fillColor=none;top=0;left=0;bottom=0;right=0;pointerEvents=1;fontSize=16;" vertex="1" parent="1">
          <mxGeometry x="911" y="200" width="57" height="20" as="geometry">
            <mxRectangle width="57" height="20" as="alternateBounds" />
          </mxGeometry>
        </mxCell>
        <mxCell id="s1b5WdfS_iwDhDCuZPvK-40" value="" style="shape=table;startSize=0;container=1;collapsible=0;childLayout=tableLayout;fontSize=16;fillColor=#f5f5f5;fontColor=#333333;strokeColor=#666666;" vertex="1" parent="1">
          <mxGeometry x="770" y="195" width="101" height="70" as="geometry" />
        </mxCell>
        <mxCell id="s1b5WdfS_iwDhDCuZPvK-110" style="shape=tableRow;horizontal=0;startSize=0;swimlaneHead=0;swimlaneBody=0;strokeColor=inherit;top=0;left=0;bottom=0;right=0;collapsible=0;dropTarget=0;fillColor=none;points=[[0,0.5],[1,0.5]];portConstraint=eastwest;fontSize=16;" vertex="1" parent="s1b5WdfS_iwDhDCuZPvK-40">
          <mxGeometry width="101" height="10" as="geometry" />
        </mxCell>
        <mxCell id="s1b5WdfS_iwDhDCuZPvK-111" style="shape=partialRectangle;html=1;whiteSpace=wrap;connectable=0;strokeColor=inherit;overflow=hidden;fillColor=none;top=0;left=0;bottom=0;right=0;pointerEvents=1;fontSize=16;" vertex="1" parent="s1b5WdfS_iwDhDCuZPvK-110">
          <mxGeometry width="17" height="10" as="geometry">
            <mxRectangle width="17" height="10" as="alternateBounds" />
          </mxGeometry>
        </mxCell>
        <mxCell id="s1b5WdfS_iwDhDCuZPvK-112" style="shape=partialRectangle;html=1;whiteSpace=wrap;connectable=0;strokeColor=inherit;overflow=hidden;fillColor=none;top=0;left=0;bottom=0;right=0;pointerEvents=1;fontSize=16;" vertex="1" parent="s1b5WdfS_iwDhDCuZPvK-110">
          <mxGeometry x="17" width="16" height="10" as="geometry">
            <mxRectangle width="16" height="10" as="alternateBounds" />
          </mxGeometry>
        </mxCell>
        <mxCell id="s1b5WdfS_iwDhDCuZPvK-113" style="shape=partialRectangle;html=1;whiteSpace=wrap;connectable=0;strokeColor=inherit;overflow=hidden;fillColor=none;top=0;left=0;bottom=0;right=0;pointerEvents=1;fontSize=16;" vertex="1" parent="s1b5WdfS_iwDhDCuZPvK-110">
          <mxGeometry x="33" width="17" height="10" as="geometry">
            <mxRectangle width="17" height="10" as="alternateBounds" />
          </mxGeometry>
        </mxCell>
        <mxCell id="s1b5WdfS_iwDhDCuZPvK-114" style="shape=partialRectangle;html=1;whiteSpace=wrap;connectable=0;strokeColor=inherit;overflow=hidden;fillColor=none;top=0;left=0;bottom=0;right=0;pointerEvents=1;fontSize=16;" vertex="1" parent="s1b5WdfS_iwDhDCuZPvK-110">
          <mxGeometry x="50" width="17" height="10" as="geometry">
            <mxRectangle width="17" height="10" as="alternateBounds" />
          </mxGeometry>
        </mxCell>
        <mxCell id="s1b5WdfS_iwDhDCuZPvK-115" style="shape=partialRectangle;html=1;whiteSpace=wrap;connectable=0;strokeColor=inherit;overflow=hidden;fillColor=none;top=0;left=0;bottom=0;right=0;pointerEvents=1;fontSize=16;" vertex="1" parent="s1b5WdfS_iwDhDCuZPvK-110">
          <mxGeometry x="67" width="17" height="10" as="geometry">
            <mxRectangle width="17" height="10" as="alternateBounds" />
          </mxGeometry>
        </mxCell>
        <mxCell id="s1b5WdfS_iwDhDCuZPvK-116" style="shape=partialRectangle;html=1;whiteSpace=wrap;connectable=0;strokeColor=inherit;overflow=hidden;fillColor=none;top=0;left=0;bottom=0;right=0;pointerEvents=1;fontSize=16;" vertex="1" parent="s1b5WdfS_iwDhDCuZPvK-110">
          <mxGeometry x="84" width="17" height="10" as="geometry">
            <mxRectangle width="17" height="10" as="alternateBounds" />
          </mxGeometry>
        </mxCell>
        <mxCell id="s1b5WdfS_iwDhDCuZPvK-41" value="" style="shape=tableRow;horizontal=0;startSize=0;swimlaneHead=0;swimlaneBody=0;strokeColor=inherit;top=0;left=0;bottom=0;right=0;collapsible=0;dropTarget=0;fillColor=none;points=[[0,0.5],[1,0.5]];portConstraint=eastwest;fontSize=16;" vertex="1" parent="s1b5WdfS_iwDhDCuZPvK-40">
          <mxGeometry y="10" width="101" height="10" as="geometry" />
        </mxCell>
        <mxCell id="s1b5WdfS_iwDhDCuZPvK-42" value="" style="shape=partialRectangle;html=1;whiteSpace=wrap;connectable=0;strokeColor=inherit;overflow=hidden;fillColor=none;top=0;left=0;bottom=0;right=0;pointerEvents=1;fontSize=16;" vertex="1" parent="s1b5WdfS_iwDhDCuZPvK-41">
          <mxGeometry width="17" height="10" as="geometry">
            <mxRectangle width="17" height="10" as="alternateBounds" />
          </mxGeometry>
        </mxCell>
        <mxCell id="s1b5WdfS_iwDhDCuZPvK-43" value="" style="shape=partialRectangle;html=1;whiteSpace=wrap;connectable=0;strokeColor=inherit;overflow=hidden;fillColor=none;top=0;left=0;bottom=0;right=0;pointerEvents=1;fontSize=16;" vertex="1" parent="s1b5WdfS_iwDhDCuZPvK-41">
          <mxGeometry x="17" width="16" height="10" as="geometry">
            <mxRectangle width="16" height="10" as="alternateBounds" />
          </mxGeometry>
        </mxCell>
        <mxCell id="s1b5WdfS_iwDhDCuZPvK-44" value="" style="shape=partialRectangle;html=1;whiteSpace=wrap;connectable=0;strokeColor=inherit;overflow=hidden;fillColor=none;top=0;left=0;bottom=0;right=0;pointerEvents=1;fontSize=16;" vertex="1" parent="s1b5WdfS_iwDhDCuZPvK-41">
          <mxGeometry x="33" width="17" height="10" as="geometry">
            <mxRectangle width="17" height="10" as="alternateBounds" />
          </mxGeometry>
        </mxCell>
        <mxCell id="s1b5WdfS_iwDhDCuZPvK-107" style="shape=partialRectangle;html=1;whiteSpace=wrap;connectable=0;strokeColor=inherit;overflow=hidden;fillColor=none;top=0;left=0;bottom=0;right=0;pointerEvents=1;fontSize=16;" vertex="1" parent="s1b5WdfS_iwDhDCuZPvK-41">
          <mxGeometry x="50" width="17" height="10" as="geometry">
            <mxRectangle width="17" height="10" as="alternateBounds" />
          </mxGeometry>
        </mxCell>
        <mxCell id="s1b5WdfS_iwDhDCuZPvK-108" style="shape=partialRectangle;html=1;whiteSpace=wrap;connectable=0;strokeColor=inherit;overflow=hidden;fillColor=none;top=0;left=0;bottom=0;right=0;pointerEvents=1;fontSize=16;" vertex="1" parent="s1b5WdfS_iwDhDCuZPvK-41">
          <mxGeometry x="67" width="17" height="10" as="geometry">
            <mxRectangle width="17" height="10" as="alternateBounds" />
          </mxGeometry>
        </mxCell>
        <mxCell id="s1b5WdfS_iwDhDCuZPvK-109" style="shape=partialRectangle;html=1;whiteSpace=wrap;connectable=0;strokeColor=inherit;overflow=hidden;fillColor=none;top=0;left=0;bottom=0;right=0;pointerEvents=1;fontSize=16;" vertex="1" parent="s1b5WdfS_iwDhDCuZPvK-41">
          <mxGeometry x="84" width="17" height="10" as="geometry">
            <mxRectangle width="17" height="10" as="alternateBounds" />
          </mxGeometry>
        </mxCell>
        <mxCell id="s1b5WdfS_iwDhDCuZPvK-117" style="shape=tableRow;horizontal=0;startSize=0;swimlaneHead=0;swimlaneBody=0;strokeColor=inherit;top=0;left=0;bottom=0;right=0;collapsible=0;dropTarget=0;fillColor=none;points=[[0,0.5],[1,0.5]];portConstraint=eastwest;fontSize=16;" vertex="1" parent="s1b5WdfS_iwDhDCuZPvK-40">
          <mxGeometry y="20" width="101" height="10" as="geometry" />
        </mxCell>
        <mxCell id="s1b5WdfS_iwDhDCuZPvK-118" style="shape=partialRectangle;html=1;whiteSpace=wrap;connectable=0;strokeColor=inherit;overflow=hidden;fillColor=none;top=0;left=0;bottom=0;right=0;pointerEvents=1;fontSize=16;" vertex="1" parent="s1b5WdfS_iwDhDCuZPvK-117">
          <mxGeometry width="17" height="10" as="geometry">
            <mxRectangle width="17" height="10" as="alternateBounds" />
          </mxGeometry>
        </mxCell>
        <mxCell id="s1b5WdfS_iwDhDCuZPvK-119" style="shape=partialRectangle;html=1;whiteSpace=wrap;connectable=0;strokeColor=inherit;overflow=hidden;fillColor=none;top=0;left=0;bottom=0;right=0;pointerEvents=1;fontSize=16;" vertex="1" parent="s1b5WdfS_iwDhDCuZPvK-117">
          <mxGeometry x="17" width="16" height="10" as="geometry">
            <mxRectangle width="16" height="10" as="alternateBounds" />
          </mxGeometry>
        </mxCell>
        <mxCell id="s1b5WdfS_iwDhDCuZPvK-120" style="shape=partialRectangle;html=1;whiteSpace=wrap;connectable=0;strokeColor=inherit;overflow=hidden;fillColor=none;top=0;left=0;bottom=0;right=0;pointerEvents=1;fontSize=16;" vertex="1" parent="s1b5WdfS_iwDhDCuZPvK-117">
          <mxGeometry x="33" width="17" height="10" as="geometry">
            <mxRectangle width="17" height="10" as="alternateBounds" />
          </mxGeometry>
        </mxCell>
        <mxCell id="s1b5WdfS_iwDhDCuZPvK-121" style="shape=partialRectangle;html=1;whiteSpace=wrap;connectable=0;strokeColor=inherit;overflow=hidden;fillColor=none;top=0;left=0;bottom=0;right=0;pointerEvents=1;fontSize=16;" vertex="1" parent="s1b5WdfS_iwDhDCuZPvK-117">
          <mxGeometry x="50" width="17" height="10" as="geometry">
            <mxRectangle width="17" height="10" as="alternateBounds" />
          </mxGeometry>
        </mxCell>
        <mxCell id="s1b5WdfS_iwDhDCuZPvK-122" style="shape=partialRectangle;html=1;whiteSpace=wrap;connectable=0;strokeColor=inherit;overflow=hidden;fillColor=none;top=0;left=0;bottom=0;right=0;pointerEvents=1;fontSize=16;" vertex="1" parent="s1b5WdfS_iwDhDCuZPvK-117">
          <mxGeometry x="67" width="17" height="10" as="geometry">
            <mxRectangle width="17" height="10" as="alternateBounds" />
          </mxGeometry>
        </mxCell>
        <mxCell id="s1b5WdfS_iwDhDCuZPvK-123" style="shape=partialRectangle;html=1;whiteSpace=wrap;connectable=0;strokeColor=inherit;overflow=hidden;fillColor=none;top=0;left=0;bottom=0;right=0;pointerEvents=1;fontSize=16;" vertex="1" parent="s1b5WdfS_iwDhDCuZPvK-117">
          <mxGeometry x="84" width="17" height="10" as="geometry">
            <mxRectangle width="17" height="10" as="alternateBounds" />
          </mxGeometry>
        </mxCell>
        <mxCell id="s1b5WdfS_iwDhDCuZPvK-124" style="shape=tableRow;horizontal=0;startSize=0;swimlaneHead=0;swimlaneBody=0;strokeColor=inherit;top=0;left=0;bottom=0;right=0;collapsible=0;dropTarget=0;fillColor=none;points=[[0,0.5],[1,0.5]];portConstraint=eastwest;fontSize=16;" vertex="1" parent="s1b5WdfS_iwDhDCuZPvK-40">
          <mxGeometry y="30" width="101" height="10" as="geometry" />
        </mxCell>
        <mxCell id="s1b5WdfS_iwDhDCuZPvK-125" style="shape=partialRectangle;html=1;whiteSpace=wrap;connectable=0;strokeColor=inherit;overflow=hidden;fillColor=none;top=0;left=0;bottom=0;right=0;pointerEvents=1;fontSize=16;" vertex="1" parent="s1b5WdfS_iwDhDCuZPvK-124">
          <mxGeometry width="17" height="10" as="geometry">
            <mxRectangle width="17" height="10" as="alternateBounds" />
          </mxGeometry>
        </mxCell>
        <mxCell id="s1b5WdfS_iwDhDCuZPvK-126" style="shape=partialRectangle;html=1;whiteSpace=wrap;connectable=0;strokeColor=inherit;overflow=hidden;fillColor=none;top=0;left=0;bottom=0;right=0;pointerEvents=1;fontSize=16;" vertex="1" parent="s1b5WdfS_iwDhDCuZPvK-124">
          <mxGeometry x="17" width="16" height="10" as="geometry">
            <mxRectangle width="16" height="10" as="alternateBounds" />
          </mxGeometry>
        </mxCell>
        <mxCell id="s1b5WdfS_iwDhDCuZPvK-127" style="shape=partialRectangle;html=1;whiteSpace=wrap;connectable=0;strokeColor=inherit;overflow=hidden;fillColor=none;top=0;left=0;bottom=0;right=0;pointerEvents=1;fontSize=16;" vertex="1" parent="s1b5WdfS_iwDhDCuZPvK-124">
          <mxGeometry x="33" width="17" height="10" as="geometry">
            <mxRectangle width="17" height="10" as="alternateBounds" />
          </mxGeometry>
        </mxCell>
        <mxCell id="s1b5WdfS_iwDhDCuZPvK-128" style="shape=partialRectangle;html=1;whiteSpace=wrap;connectable=0;strokeColor=inherit;overflow=hidden;fillColor=none;top=0;left=0;bottom=0;right=0;pointerEvents=1;fontSize=16;" vertex="1" parent="s1b5WdfS_iwDhDCuZPvK-124">
          <mxGeometry x="50" width="17" height="10" as="geometry">
            <mxRectangle width="17" height="10" as="alternateBounds" />
          </mxGeometry>
        </mxCell>
        <mxCell id="s1b5WdfS_iwDhDCuZPvK-129" style="shape=partialRectangle;html=1;whiteSpace=wrap;connectable=0;strokeColor=inherit;overflow=hidden;fillColor=none;top=0;left=0;bottom=0;right=0;pointerEvents=1;fontSize=16;" vertex="1" parent="s1b5WdfS_iwDhDCuZPvK-124">
          <mxGeometry x="67" width="17" height="10" as="geometry">
            <mxRectangle width="17" height="10" as="alternateBounds" />
          </mxGeometry>
        </mxCell>
        <mxCell id="s1b5WdfS_iwDhDCuZPvK-130" style="shape=partialRectangle;html=1;whiteSpace=wrap;connectable=0;strokeColor=inherit;overflow=hidden;fillColor=none;top=0;left=0;bottom=0;right=0;pointerEvents=1;fontSize=16;" vertex="1" parent="s1b5WdfS_iwDhDCuZPvK-124">
          <mxGeometry x="84" width="17" height="10" as="geometry">
            <mxRectangle width="17" height="10" as="alternateBounds" />
          </mxGeometry>
        </mxCell>
        <mxCell id="s1b5WdfS_iwDhDCuZPvK-131" style="shape=tableRow;horizontal=0;startSize=0;swimlaneHead=0;swimlaneBody=0;strokeColor=inherit;top=0;left=0;bottom=0;right=0;collapsible=0;dropTarget=0;fillColor=none;points=[[0,0.5],[1,0.5]];portConstraint=eastwest;fontSize=16;" vertex="1" parent="s1b5WdfS_iwDhDCuZPvK-40">
          <mxGeometry y="40" width="101" height="10" as="geometry" />
        </mxCell>
        <mxCell id="s1b5WdfS_iwDhDCuZPvK-132" style="shape=partialRectangle;html=1;whiteSpace=wrap;connectable=0;strokeColor=inherit;overflow=hidden;fillColor=none;top=0;left=0;bottom=0;right=0;pointerEvents=1;fontSize=16;" vertex="1" parent="s1b5WdfS_iwDhDCuZPvK-131">
          <mxGeometry width="17" height="10" as="geometry">
            <mxRectangle width="17" height="10" as="alternateBounds" />
          </mxGeometry>
        </mxCell>
        <mxCell id="s1b5WdfS_iwDhDCuZPvK-133" style="shape=partialRectangle;html=1;whiteSpace=wrap;connectable=0;strokeColor=inherit;overflow=hidden;fillColor=none;top=0;left=0;bottom=0;right=0;pointerEvents=1;fontSize=16;" vertex="1" parent="s1b5WdfS_iwDhDCuZPvK-131">
          <mxGeometry x="17" width="16" height="10" as="geometry">
            <mxRectangle width="16" height="10" as="alternateBounds" />
          </mxGeometry>
        </mxCell>
        <mxCell id="s1b5WdfS_iwDhDCuZPvK-134" style="shape=partialRectangle;html=1;whiteSpace=wrap;connectable=0;strokeColor=inherit;overflow=hidden;fillColor=none;top=0;left=0;bottom=0;right=0;pointerEvents=1;fontSize=16;" vertex="1" parent="s1b5WdfS_iwDhDCuZPvK-131">
          <mxGeometry x="33" width="17" height="10" as="geometry">
            <mxRectangle width="17" height="10" as="alternateBounds" />
          </mxGeometry>
        </mxCell>
        <mxCell id="s1b5WdfS_iwDhDCuZPvK-135" style="shape=partialRectangle;html=1;whiteSpace=wrap;connectable=0;strokeColor=inherit;overflow=hidden;fillColor=none;top=0;left=0;bottom=0;right=0;pointerEvents=1;fontSize=16;" vertex="1" parent="s1b5WdfS_iwDhDCuZPvK-131">
          <mxGeometry x="50" width="17" height="10" as="geometry">
            <mxRectangle width="17" height="10" as="alternateBounds" />
          </mxGeometry>
        </mxCell>
        <mxCell id="s1b5WdfS_iwDhDCuZPvK-136" style="shape=partialRectangle;html=1;whiteSpace=wrap;connectable=0;strokeColor=inherit;overflow=hidden;fillColor=none;top=0;left=0;bottom=0;right=0;pointerEvents=1;fontSize=16;" vertex="1" parent="s1b5WdfS_iwDhDCuZPvK-131">
          <mxGeometry x="67" width="17" height="10" as="geometry">
            <mxRectangle width="17" height="10" as="alternateBounds" />
          </mxGeometry>
        </mxCell>
        <mxCell id="s1b5WdfS_iwDhDCuZPvK-137" style="shape=partialRectangle;html=1;whiteSpace=wrap;connectable=0;strokeColor=inherit;overflow=hidden;fillColor=none;top=0;left=0;bottom=0;right=0;pointerEvents=1;fontSize=16;" vertex="1" parent="s1b5WdfS_iwDhDCuZPvK-131">
          <mxGeometry x="84" width="17" height="10" as="geometry">
            <mxRectangle width="17" height="10" as="alternateBounds" />
          </mxGeometry>
        </mxCell>
        <mxCell id="s1b5WdfS_iwDhDCuZPvK-138" style="shape=tableRow;horizontal=0;startSize=0;swimlaneHead=0;swimlaneBody=0;strokeColor=inherit;top=0;left=0;bottom=0;right=0;collapsible=0;dropTarget=0;fillColor=none;points=[[0,0.5],[1,0.5]];portConstraint=eastwest;fontSize=16;" vertex="1" parent="s1b5WdfS_iwDhDCuZPvK-40">
          <mxGeometry y="50" width="101" height="10" as="geometry" />
        </mxCell>
        <mxCell id="s1b5WdfS_iwDhDCuZPvK-139" style="shape=partialRectangle;html=1;whiteSpace=wrap;connectable=0;strokeColor=inherit;overflow=hidden;fillColor=none;top=0;left=0;bottom=0;right=0;pointerEvents=1;fontSize=16;" vertex="1" parent="s1b5WdfS_iwDhDCuZPvK-138">
          <mxGeometry width="17" height="10" as="geometry">
            <mxRectangle width="17" height="10" as="alternateBounds" />
          </mxGeometry>
        </mxCell>
        <mxCell id="s1b5WdfS_iwDhDCuZPvK-140" style="shape=partialRectangle;html=1;whiteSpace=wrap;connectable=0;strokeColor=inherit;overflow=hidden;fillColor=none;top=0;left=0;bottom=0;right=0;pointerEvents=1;fontSize=16;" vertex="1" parent="s1b5WdfS_iwDhDCuZPvK-138">
          <mxGeometry x="17" width="16" height="10" as="geometry">
            <mxRectangle width="16" height="10" as="alternateBounds" />
          </mxGeometry>
        </mxCell>
        <mxCell id="s1b5WdfS_iwDhDCuZPvK-141" style="shape=partialRectangle;html=1;whiteSpace=wrap;connectable=0;strokeColor=inherit;overflow=hidden;fillColor=none;top=0;left=0;bottom=0;right=0;pointerEvents=1;fontSize=16;" vertex="1" parent="s1b5WdfS_iwDhDCuZPvK-138">
          <mxGeometry x="33" width="17" height="10" as="geometry">
            <mxRectangle width="17" height="10" as="alternateBounds" />
          </mxGeometry>
        </mxCell>
        <mxCell id="s1b5WdfS_iwDhDCuZPvK-142" style="shape=partialRectangle;html=1;whiteSpace=wrap;connectable=0;strokeColor=inherit;overflow=hidden;fillColor=none;top=0;left=0;bottom=0;right=0;pointerEvents=1;fontSize=16;" vertex="1" parent="s1b5WdfS_iwDhDCuZPvK-138">
          <mxGeometry x="50" width="17" height="10" as="geometry">
            <mxRectangle width="17" height="10" as="alternateBounds" />
          </mxGeometry>
        </mxCell>
        <mxCell id="s1b5WdfS_iwDhDCuZPvK-143" style="shape=partialRectangle;html=1;whiteSpace=wrap;connectable=0;strokeColor=inherit;overflow=hidden;fillColor=none;top=0;left=0;bottom=0;right=0;pointerEvents=1;fontSize=16;" vertex="1" parent="s1b5WdfS_iwDhDCuZPvK-138">
          <mxGeometry x="67" width="17" height="10" as="geometry">
            <mxRectangle width="17" height="10" as="alternateBounds" />
          </mxGeometry>
        </mxCell>
        <mxCell id="s1b5WdfS_iwDhDCuZPvK-144" style="shape=partialRectangle;html=1;whiteSpace=wrap;connectable=0;strokeColor=inherit;overflow=hidden;fillColor=none;top=0;left=0;bottom=0;right=0;pointerEvents=1;fontSize=16;" vertex="1" parent="s1b5WdfS_iwDhDCuZPvK-138">
          <mxGeometry x="84" width="17" height="10" as="geometry">
            <mxRectangle width="17" height="10" as="alternateBounds" />
          </mxGeometry>
        </mxCell>
        <mxCell id="s1b5WdfS_iwDhDCuZPvK-145" style="shape=tableRow;horizontal=0;startSize=0;swimlaneHead=0;swimlaneBody=0;strokeColor=inherit;top=0;left=0;bottom=0;right=0;collapsible=0;dropTarget=0;fillColor=none;points=[[0,0.5],[1,0.5]];portConstraint=eastwest;fontSize=16;" vertex="1" parent="s1b5WdfS_iwDhDCuZPvK-40">
          <mxGeometry y="60" width="101" height="10" as="geometry" />
        </mxCell>
        <mxCell id="s1b5WdfS_iwDhDCuZPvK-146" style="shape=partialRectangle;html=1;whiteSpace=wrap;connectable=0;strokeColor=inherit;overflow=hidden;fillColor=none;top=0;left=0;bottom=0;right=0;pointerEvents=1;fontSize=16;" vertex="1" parent="s1b5WdfS_iwDhDCuZPvK-145">
          <mxGeometry width="17" height="10" as="geometry">
            <mxRectangle width="17" height="10" as="alternateBounds" />
          </mxGeometry>
        </mxCell>
        <mxCell id="s1b5WdfS_iwDhDCuZPvK-147" style="shape=partialRectangle;html=1;whiteSpace=wrap;connectable=0;strokeColor=inherit;overflow=hidden;fillColor=none;top=0;left=0;bottom=0;right=0;pointerEvents=1;fontSize=16;" vertex="1" parent="s1b5WdfS_iwDhDCuZPvK-145">
          <mxGeometry x="17" width="16" height="10" as="geometry">
            <mxRectangle width="16" height="10" as="alternateBounds" />
          </mxGeometry>
        </mxCell>
        <mxCell id="s1b5WdfS_iwDhDCuZPvK-148" style="shape=partialRectangle;html=1;whiteSpace=wrap;connectable=0;strokeColor=inherit;overflow=hidden;fillColor=none;top=0;left=0;bottom=0;right=0;pointerEvents=1;fontSize=16;" vertex="1" parent="s1b5WdfS_iwDhDCuZPvK-145">
          <mxGeometry x="33" width="17" height="10" as="geometry">
            <mxRectangle width="17" height="10" as="alternateBounds" />
          </mxGeometry>
        </mxCell>
        <mxCell id="s1b5WdfS_iwDhDCuZPvK-149" style="shape=partialRectangle;html=1;whiteSpace=wrap;connectable=0;strokeColor=inherit;overflow=hidden;fillColor=none;top=0;left=0;bottom=0;right=0;pointerEvents=1;fontSize=16;" vertex="1" parent="s1b5WdfS_iwDhDCuZPvK-145">
          <mxGeometry x="50" width="17" height="10" as="geometry">
            <mxRectangle width="17" height="10" as="alternateBounds" />
          </mxGeometry>
        </mxCell>
        <mxCell id="s1b5WdfS_iwDhDCuZPvK-150" style="shape=partialRectangle;html=1;whiteSpace=wrap;connectable=0;strokeColor=inherit;overflow=hidden;fillColor=none;top=0;left=0;bottom=0;right=0;pointerEvents=1;fontSize=16;" vertex="1" parent="s1b5WdfS_iwDhDCuZPvK-145">
          <mxGeometry x="67" width="17" height="10" as="geometry">
            <mxRectangle width="17" height="10" as="alternateBounds" />
          </mxGeometry>
        </mxCell>
        <mxCell id="s1b5WdfS_iwDhDCuZPvK-151" style="shape=partialRectangle;html=1;whiteSpace=wrap;connectable=0;strokeColor=inherit;overflow=hidden;fillColor=none;top=0;left=0;bottom=0;right=0;pointerEvents=1;fontSize=16;" vertex="1" parent="s1b5WdfS_iwDhDCuZPvK-145">
          <mxGeometry x="84" width="17" height="10" as="geometry">
            <mxRectangle width="17" height="10" as="alternateBounds" />
          </mxGeometry>
        </mxCell>
        <mxCell id="s1b5WdfS_iwDhDCuZPvK-81" value="" style="endArrow=classic;html=1;rounded=0;exitX=1;exitY=0.5;exitDx=0;exitDy=0;" edge="1" parent="1" source="s1b5WdfS_iwDhDCuZPvK-19">
          <mxGeometry width="50" height="50" relative="1" as="geometry">
            <mxPoint x="661" y="410" as="sourcePoint" />
            <mxPoint x="761" y="226" as="targetPoint" />
          </mxGeometry>
        </mxCell>
        <mxCell id="s1b5WdfS_iwDhDCuZPvK-82" value="Embbeded Vectors" style="text;html=1;align=center;verticalAlign=middle;whiteSpace=wrap;rounded=0;" vertex="1" parent="1">
          <mxGeometry x="782" y="278" width="81" height="30" as="geometry" />
        </mxCell>
        <mxCell id="s1b5WdfS_iwDhDCuZPvK-83" value="Embbeding" style="text;html=1;align=center;verticalAlign=middle;whiteSpace=wrap;rounded=0;" vertex="1" parent="1">
          <mxGeometry x="687" y="199" width="81" height="30" as="geometry" />
        </mxCell>
        <mxCell id="s1b5WdfS_iwDhDCuZPvK-84" value="" style="shape=image;verticalLabelPosition=bottom;labelBackgroundColor=default;verticalAlign=top;aspect=fixed;imageAspect=0;image=https://static.thenounproject.com/png/1348731-200.png;" vertex="1" parent="1">
          <mxGeometry x="777.5" y="368" width="90" height="90" as="geometry" />
        </mxCell>
        <mxCell id="s1b5WdfS_iwDhDCuZPvK-85" value="ML Model" style="text;html=1;align=center;verticalAlign=middle;whiteSpace=wrap;rounded=0;" vertex="1" parent="1">
          <mxGeometry x="782" y="458" width="81" height="30" as="geometry" />
        </mxCell>
        <mxCell id="s1b5WdfS_iwDhDCuZPvK-86" value="" style="shape=image;html=1;verticalAlign=top;verticalLabelPosition=bottom;labelBackgroundColor=#ffffff;imageAspect=0;aspect=fixed;image=https://cdn4.iconfinder.com/data/icons/ionicons/512/icon-plus-round-128.png" vertex="1" parent="1">
          <mxGeometry x="802.5" y="318" width="40" height="40" as="geometry" />
        </mxCell>
        <mxCell id="s1b5WdfS_iwDhDCuZPvK-87" value="" style="shape=cylinder3;whiteSpace=wrap;html=1;boundedLbl=1;backgroundOutline=1;size=15;" vertex="1" parent="1">
          <mxGeometry x="656" y="375" width="60" height="80" as="geometry" />
        </mxCell>
        <mxCell id="s1b5WdfS_iwDhDCuZPvK-88" value="Errors" style="text;html=1;align=center;verticalAlign=middle;whiteSpace=wrap;rounded=0;" vertex="1" parent="1">
          <mxGeometry x="649" y="458" width="74" height="30" as="geometry" />
        </mxCell>
        <mxCell id="s1b5WdfS_iwDhDCuZPvK-91" value="" style="endArrow=classic;html=1;rounded=0;entryX=0;entryY=0.5;entryDx=0;entryDy=0;" edge="1" parent="1" target="s1b5WdfS_iwDhDCuZPvK-84">
          <mxGeometry width="50" height="50" relative="1" as="geometry">
            <mxPoint x="721" y="413" as="sourcePoint" />
            <mxPoint x="711" y="360" as="targetPoint" />
          </mxGeometry>
        </mxCell>
        <mxCell id="s1b5WdfS_iwDhDCuZPvK-92" value="" style="shape=table;startSize=0;container=1;collapsible=0;childLayout=tableLayout;fontSize=16;fillColor=#dae8fc;strokeColor=#6c8ebf;" vertex="1" parent="1">
          <mxGeometry x="944" y="380" width="85" height="70" as="geometry" />
        </mxCell>
        <mxCell id="s1b5WdfS_iwDhDCuZPvK-93" value="" style="shape=tableRow;horizontal=0;startSize=0;swimlaneHead=0;swimlaneBody=0;strokeColor=inherit;top=0;left=0;bottom=0;right=0;collapsible=0;dropTarget=0;fillColor=none;points=[[0,0.5],[1,0.5]];portConstraint=eastwest;fontSize=16;" vertex="1" parent="s1b5WdfS_iwDhDCuZPvK-92">
          <mxGeometry width="85" height="10" as="geometry" />
        </mxCell>
        <mxCell id="s1b5WdfS_iwDhDCuZPvK-179" style="shape=partialRectangle;html=1;whiteSpace=wrap;connectable=0;strokeColor=inherit;overflow=hidden;fillColor=none;top=0;left=0;bottom=0;right=0;pointerEvents=1;fontSize=16;" vertex="1" parent="s1b5WdfS_iwDhDCuZPvK-93">
          <mxGeometry width="17" height="10" as="geometry">
            <mxRectangle width="17" height="10" as="alternateBounds" />
          </mxGeometry>
        </mxCell>
        <mxCell id="s1b5WdfS_iwDhDCuZPvK-172" style="shape=partialRectangle;html=1;whiteSpace=wrap;connectable=0;strokeColor=inherit;overflow=hidden;fillColor=none;top=0;left=0;bottom=0;right=0;pointerEvents=1;fontSize=16;" vertex="1" parent="s1b5WdfS_iwDhDCuZPvK-93">
          <mxGeometry x="17" width="17" height="10" as="geometry">
            <mxRectangle width="17" height="10" as="alternateBounds" />
          </mxGeometry>
        </mxCell>
        <mxCell id="s1b5WdfS_iwDhDCuZPvK-165" style="shape=partialRectangle;html=1;whiteSpace=wrap;connectable=0;strokeColor=inherit;overflow=hidden;fillColor=none;top=0;left=0;bottom=0;right=0;pointerEvents=1;fontSize=16;" vertex="1" parent="s1b5WdfS_iwDhDCuZPvK-93">
          <mxGeometry x="34" width="17" height="10" as="geometry">
            <mxRectangle width="17" height="10" as="alternateBounds" />
          </mxGeometry>
        </mxCell>
        <mxCell id="s1b5WdfS_iwDhDCuZPvK-158" style="shape=partialRectangle;html=1;whiteSpace=wrap;connectable=0;strokeColor=inherit;overflow=hidden;fillColor=none;top=0;left=0;bottom=0;right=0;pointerEvents=1;fontSize=16;" vertex="1" parent="s1b5WdfS_iwDhDCuZPvK-93">
          <mxGeometry x="51" width="17" height="10" as="geometry">
            <mxRectangle width="17" height="10" as="alternateBounds" />
          </mxGeometry>
        </mxCell>
        <mxCell id="s1b5WdfS_iwDhDCuZPvK-94" value="" style="shape=partialRectangle;html=1;whiteSpace=wrap;connectable=0;strokeColor=inherit;overflow=hidden;fillColor=none;top=0;left=0;bottom=0;right=0;pointerEvents=1;fontSize=16;" vertex="1" parent="s1b5WdfS_iwDhDCuZPvK-93">
          <mxGeometry x="68" width="17" height="10" as="geometry">
            <mxRectangle width="17" height="10" as="alternateBounds" />
          </mxGeometry>
        </mxCell>
        <mxCell id="s1b5WdfS_iwDhDCuZPvK-97" style="shape=tableRow;horizontal=0;startSize=0;swimlaneHead=0;swimlaneBody=0;strokeColor=inherit;top=0;left=0;bottom=0;right=0;collapsible=0;dropTarget=0;fillColor=none;points=[[0,0.5],[1,0.5]];portConstraint=eastwest;fontSize=16;" vertex="1" parent="s1b5WdfS_iwDhDCuZPvK-92">
          <mxGeometry y="10" width="85" height="10" as="geometry" />
        </mxCell>
        <mxCell id="s1b5WdfS_iwDhDCuZPvK-180" style="shape=partialRectangle;html=1;whiteSpace=wrap;connectable=0;strokeColor=inherit;overflow=hidden;fillColor=none;top=0;left=0;bottom=0;right=0;pointerEvents=1;fontSize=16;" vertex="1" parent="s1b5WdfS_iwDhDCuZPvK-97">
          <mxGeometry width="17" height="10" as="geometry">
            <mxRectangle width="17" height="10" as="alternateBounds" />
          </mxGeometry>
        </mxCell>
        <mxCell id="s1b5WdfS_iwDhDCuZPvK-173" style="shape=partialRectangle;html=1;whiteSpace=wrap;connectable=0;strokeColor=inherit;overflow=hidden;fillColor=none;top=0;left=0;bottom=0;right=0;pointerEvents=1;fontSize=16;" vertex="1" parent="s1b5WdfS_iwDhDCuZPvK-97">
          <mxGeometry x="17" width="17" height="10" as="geometry">
            <mxRectangle width="17" height="10" as="alternateBounds" />
          </mxGeometry>
        </mxCell>
        <mxCell id="s1b5WdfS_iwDhDCuZPvK-166" style="shape=partialRectangle;html=1;whiteSpace=wrap;connectable=0;strokeColor=inherit;overflow=hidden;fillColor=none;top=0;left=0;bottom=0;right=0;pointerEvents=1;fontSize=16;" vertex="1" parent="s1b5WdfS_iwDhDCuZPvK-97">
          <mxGeometry x="34" width="17" height="10" as="geometry">
            <mxRectangle width="17" height="10" as="alternateBounds" />
          </mxGeometry>
        </mxCell>
        <mxCell id="s1b5WdfS_iwDhDCuZPvK-159" style="shape=partialRectangle;html=1;whiteSpace=wrap;connectable=0;strokeColor=inherit;overflow=hidden;fillColor=none;top=0;left=0;bottom=0;right=0;pointerEvents=1;fontSize=16;" vertex="1" parent="s1b5WdfS_iwDhDCuZPvK-97">
          <mxGeometry x="51" width="17" height="10" as="geometry">
            <mxRectangle width="17" height="10" as="alternateBounds" />
          </mxGeometry>
        </mxCell>
        <mxCell id="s1b5WdfS_iwDhDCuZPvK-98" style="shape=partialRectangle;html=1;whiteSpace=wrap;connectable=0;strokeColor=inherit;overflow=hidden;fillColor=none;top=0;left=0;bottom=0;right=0;pointerEvents=1;fontSize=16;" vertex="1" parent="s1b5WdfS_iwDhDCuZPvK-97">
          <mxGeometry x="68" width="17" height="10" as="geometry">
            <mxRectangle width="17" height="10" as="alternateBounds" />
          </mxGeometry>
        </mxCell>
        <mxCell id="s1b5WdfS_iwDhDCuZPvK-101" style="shape=tableRow;horizontal=0;startSize=0;swimlaneHead=0;swimlaneBody=0;strokeColor=inherit;top=0;left=0;bottom=0;right=0;collapsible=0;dropTarget=0;fillColor=none;points=[[0,0.5],[1,0.5]];portConstraint=eastwest;fontSize=16;" vertex="1" parent="s1b5WdfS_iwDhDCuZPvK-92">
          <mxGeometry y="20" width="85" height="10" as="geometry" />
        </mxCell>
        <mxCell id="s1b5WdfS_iwDhDCuZPvK-181" style="shape=partialRectangle;html=1;whiteSpace=wrap;connectable=0;strokeColor=inherit;overflow=hidden;fillColor=none;top=0;left=0;bottom=0;right=0;pointerEvents=1;fontSize=16;" vertex="1" parent="s1b5WdfS_iwDhDCuZPvK-101">
          <mxGeometry width="17" height="10" as="geometry">
            <mxRectangle width="17" height="10" as="alternateBounds" />
          </mxGeometry>
        </mxCell>
        <mxCell id="s1b5WdfS_iwDhDCuZPvK-174" style="shape=partialRectangle;html=1;whiteSpace=wrap;connectable=0;strokeColor=inherit;overflow=hidden;fillColor=none;top=0;left=0;bottom=0;right=0;pointerEvents=1;fontSize=16;" vertex="1" parent="s1b5WdfS_iwDhDCuZPvK-101">
          <mxGeometry x="17" width="17" height="10" as="geometry">
            <mxRectangle width="17" height="10" as="alternateBounds" />
          </mxGeometry>
        </mxCell>
        <mxCell id="s1b5WdfS_iwDhDCuZPvK-167" style="shape=partialRectangle;html=1;whiteSpace=wrap;connectable=0;strokeColor=inherit;overflow=hidden;fillColor=none;top=0;left=0;bottom=0;right=0;pointerEvents=1;fontSize=16;" vertex="1" parent="s1b5WdfS_iwDhDCuZPvK-101">
          <mxGeometry x="34" width="17" height="10" as="geometry">
            <mxRectangle width="17" height="10" as="alternateBounds" />
          </mxGeometry>
        </mxCell>
        <mxCell id="s1b5WdfS_iwDhDCuZPvK-160" style="shape=partialRectangle;html=1;whiteSpace=wrap;connectable=0;strokeColor=inherit;overflow=hidden;fillColor=none;top=0;left=0;bottom=0;right=0;pointerEvents=1;fontSize=16;" vertex="1" parent="s1b5WdfS_iwDhDCuZPvK-101">
          <mxGeometry x="51" width="17" height="10" as="geometry">
            <mxRectangle width="17" height="10" as="alternateBounds" />
          </mxGeometry>
        </mxCell>
        <mxCell id="s1b5WdfS_iwDhDCuZPvK-102" style="shape=partialRectangle;html=1;whiteSpace=wrap;connectable=0;strokeColor=inherit;overflow=hidden;fillColor=none;top=0;left=0;bottom=0;right=0;pointerEvents=1;fontSize=16;" vertex="1" parent="s1b5WdfS_iwDhDCuZPvK-101">
          <mxGeometry x="68" width="17" height="10" as="geometry">
            <mxRectangle width="17" height="10" as="alternateBounds" />
          </mxGeometry>
        </mxCell>
        <mxCell id="s1b5WdfS_iwDhDCuZPvK-103" style="shape=tableRow;horizontal=0;startSize=0;swimlaneHead=0;swimlaneBody=0;strokeColor=inherit;top=0;left=0;bottom=0;right=0;collapsible=0;dropTarget=0;fillColor=none;points=[[0,0.5],[1,0.5]];portConstraint=eastwest;fontSize=16;" vertex="1" parent="s1b5WdfS_iwDhDCuZPvK-92">
          <mxGeometry y="30" width="85" height="10" as="geometry" />
        </mxCell>
        <mxCell id="s1b5WdfS_iwDhDCuZPvK-182" style="shape=partialRectangle;html=1;whiteSpace=wrap;connectable=0;strokeColor=inherit;overflow=hidden;fillColor=none;top=0;left=0;bottom=0;right=0;pointerEvents=1;fontSize=16;" vertex="1" parent="s1b5WdfS_iwDhDCuZPvK-103">
          <mxGeometry width="17" height="10" as="geometry">
            <mxRectangle width="17" height="10" as="alternateBounds" />
          </mxGeometry>
        </mxCell>
        <mxCell id="s1b5WdfS_iwDhDCuZPvK-175" style="shape=partialRectangle;html=1;whiteSpace=wrap;connectable=0;strokeColor=inherit;overflow=hidden;fillColor=none;top=0;left=0;bottom=0;right=0;pointerEvents=1;fontSize=16;" vertex="1" parent="s1b5WdfS_iwDhDCuZPvK-103">
          <mxGeometry x="17" width="17" height="10" as="geometry">
            <mxRectangle width="17" height="10" as="alternateBounds" />
          </mxGeometry>
        </mxCell>
        <mxCell id="s1b5WdfS_iwDhDCuZPvK-168" style="shape=partialRectangle;html=1;whiteSpace=wrap;connectable=0;strokeColor=inherit;overflow=hidden;fillColor=none;top=0;left=0;bottom=0;right=0;pointerEvents=1;fontSize=16;" vertex="1" parent="s1b5WdfS_iwDhDCuZPvK-103">
          <mxGeometry x="34" width="17" height="10" as="geometry">
            <mxRectangle width="17" height="10" as="alternateBounds" />
          </mxGeometry>
        </mxCell>
        <mxCell id="s1b5WdfS_iwDhDCuZPvK-161" style="shape=partialRectangle;html=1;whiteSpace=wrap;connectable=0;strokeColor=inherit;overflow=hidden;fillColor=none;top=0;left=0;bottom=0;right=0;pointerEvents=1;fontSize=16;" vertex="1" parent="s1b5WdfS_iwDhDCuZPvK-103">
          <mxGeometry x="51" width="17" height="10" as="geometry">
            <mxRectangle width="17" height="10" as="alternateBounds" />
          </mxGeometry>
        </mxCell>
        <mxCell id="s1b5WdfS_iwDhDCuZPvK-104" style="shape=partialRectangle;html=1;whiteSpace=wrap;connectable=0;strokeColor=inherit;overflow=hidden;fillColor=none;top=0;left=0;bottom=0;right=0;pointerEvents=1;fontSize=16;" vertex="1" parent="s1b5WdfS_iwDhDCuZPvK-103">
          <mxGeometry x="68" width="17" height="10" as="geometry">
            <mxRectangle width="17" height="10" as="alternateBounds" />
          </mxGeometry>
        </mxCell>
        <mxCell id="s1b5WdfS_iwDhDCuZPvK-105" style="shape=tableRow;horizontal=0;startSize=0;swimlaneHead=0;swimlaneBody=0;strokeColor=inherit;top=0;left=0;bottom=0;right=0;collapsible=0;dropTarget=0;fillColor=none;points=[[0,0.5],[1,0.5]];portConstraint=eastwest;fontSize=16;" vertex="1" parent="s1b5WdfS_iwDhDCuZPvK-92">
          <mxGeometry y="40" width="85" height="10" as="geometry" />
        </mxCell>
        <mxCell id="s1b5WdfS_iwDhDCuZPvK-183" style="shape=partialRectangle;html=1;whiteSpace=wrap;connectable=0;strokeColor=inherit;overflow=hidden;fillColor=none;top=0;left=0;bottom=0;right=0;pointerEvents=1;fontSize=16;" vertex="1" parent="s1b5WdfS_iwDhDCuZPvK-105">
          <mxGeometry width="17" height="10" as="geometry">
            <mxRectangle width="17" height="10" as="alternateBounds" />
          </mxGeometry>
        </mxCell>
        <mxCell id="s1b5WdfS_iwDhDCuZPvK-176" style="shape=partialRectangle;html=1;whiteSpace=wrap;connectable=0;strokeColor=inherit;overflow=hidden;fillColor=none;top=0;left=0;bottom=0;right=0;pointerEvents=1;fontSize=16;" vertex="1" parent="s1b5WdfS_iwDhDCuZPvK-105">
          <mxGeometry x="17" width="17" height="10" as="geometry">
            <mxRectangle width="17" height="10" as="alternateBounds" />
          </mxGeometry>
        </mxCell>
        <mxCell id="s1b5WdfS_iwDhDCuZPvK-169" style="shape=partialRectangle;html=1;whiteSpace=wrap;connectable=0;strokeColor=inherit;overflow=hidden;fillColor=none;top=0;left=0;bottom=0;right=0;pointerEvents=1;fontSize=16;" vertex="1" parent="s1b5WdfS_iwDhDCuZPvK-105">
          <mxGeometry x="34" width="17" height="10" as="geometry">
            <mxRectangle width="17" height="10" as="alternateBounds" />
          </mxGeometry>
        </mxCell>
        <mxCell id="s1b5WdfS_iwDhDCuZPvK-162" style="shape=partialRectangle;html=1;whiteSpace=wrap;connectable=0;strokeColor=inherit;overflow=hidden;fillColor=none;top=0;left=0;bottom=0;right=0;pointerEvents=1;fontSize=16;" vertex="1" parent="s1b5WdfS_iwDhDCuZPvK-105">
          <mxGeometry x="51" width="17" height="10" as="geometry">
            <mxRectangle width="17" height="10" as="alternateBounds" />
          </mxGeometry>
        </mxCell>
        <mxCell id="s1b5WdfS_iwDhDCuZPvK-106" style="shape=partialRectangle;html=1;whiteSpace=wrap;connectable=0;strokeColor=inherit;overflow=hidden;fillColor=none;top=0;left=0;bottom=0;right=0;pointerEvents=1;fontSize=16;" vertex="1" parent="s1b5WdfS_iwDhDCuZPvK-105">
          <mxGeometry x="68" width="17" height="10" as="geometry">
            <mxRectangle width="17" height="10" as="alternateBounds" />
          </mxGeometry>
        </mxCell>
        <mxCell id="s1b5WdfS_iwDhDCuZPvK-152" style="shape=tableRow;horizontal=0;startSize=0;swimlaneHead=0;swimlaneBody=0;strokeColor=inherit;top=0;left=0;bottom=0;right=0;collapsible=0;dropTarget=0;fillColor=none;points=[[0,0.5],[1,0.5]];portConstraint=eastwest;fontSize=16;" vertex="1" parent="s1b5WdfS_iwDhDCuZPvK-92">
          <mxGeometry y="50" width="85" height="10" as="geometry" />
        </mxCell>
        <mxCell id="s1b5WdfS_iwDhDCuZPvK-184" style="shape=partialRectangle;html=1;whiteSpace=wrap;connectable=0;strokeColor=inherit;overflow=hidden;fillColor=none;top=0;left=0;bottom=0;right=0;pointerEvents=1;fontSize=16;" vertex="1" parent="s1b5WdfS_iwDhDCuZPvK-152">
          <mxGeometry width="17" height="10" as="geometry">
            <mxRectangle width="17" height="10" as="alternateBounds" />
          </mxGeometry>
        </mxCell>
        <mxCell id="s1b5WdfS_iwDhDCuZPvK-177" style="shape=partialRectangle;html=1;whiteSpace=wrap;connectable=0;strokeColor=inherit;overflow=hidden;fillColor=none;top=0;left=0;bottom=0;right=0;pointerEvents=1;fontSize=16;" vertex="1" parent="s1b5WdfS_iwDhDCuZPvK-152">
          <mxGeometry x="17" width="17" height="10" as="geometry">
            <mxRectangle width="17" height="10" as="alternateBounds" />
          </mxGeometry>
        </mxCell>
        <mxCell id="s1b5WdfS_iwDhDCuZPvK-170" style="shape=partialRectangle;html=1;whiteSpace=wrap;connectable=0;strokeColor=inherit;overflow=hidden;fillColor=none;top=0;left=0;bottom=0;right=0;pointerEvents=1;fontSize=16;" vertex="1" parent="s1b5WdfS_iwDhDCuZPvK-152">
          <mxGeometry x="34" width="17" height="10" as="geometry">
            <mxRectangle width="17" height="10" as="alternateBounds" />
          </mxGeometry>
        </mxCell>
        <mxCell id="s1b5WdfS_iwDhDCuZPvK-163" style="shape=partialRectangle;html=1;whiteSpace=wrap;connectable=0;strokeColor=inherit;overflow=hidden;fillColor=none;top=0;left=0;bottom=0;right=0;pointerEvents=1;fontSize=16;" vertex="1" parent="s1b5WdfS_iwDhDCuZPvK-152">
          <mxGeometry x="51" width="17" height="10" as="geometry">
            <mxRectangle width="17" height="10" as="alternateBounds" />
          </mxGeometry>
        </mxCell>
        <mxCell id="s1b5WdfS_iwDhDCuZPvK-153" style="shape=partialRectangle;html=1;whiteSpace=wrap;connectable=0;strokeColor=inherit;overflow=hidden;fillColor=none;top=0;left=0;bottom=0;right=0;pointerEvents=1;fontSize=16;" vertex="1" parent="s1b5WdfS_iwDhDCuZPvK-152">
          <mxGeometry x="68" width="17" height="10" as="geometry">
            <mxRectangle width="17" height="10" as="alternateBounds" />
          </mxGeometry>
        </mxCell>
        <mxCell id="s1b5WdfS_iwDhDCuZPvK-154" style="shape=tableRow;horizontal=0;startSize=0;swimlaneHead=0;swimlaneBody=0;strokeColor=inherit;top=0;left=0;bottom=0;right=0;collapsible=0;dropTarget=0;fillColor=none;points=[[0,0.5],[1,0.5]];portConstraint=eastwest;fontSize=16;" vertex="1" parent="s1b5WdfS_iwDhDCuZPvK-92">
          <mxGeometry y="60" width="85" height="10" as="geometry" />
        </mxCell>
        <mxCell id="s1b5WdfS_iwDhDCuZPvK-185" style="shape=partialRectangle;html=1;whiteSpace=wrap;connectable=0;strokeColor=inherit;overflow=hidden;fillColor=none;top=0;left=0;bottom=0;right=0;pointerEvents=1;fontSize=16;" vertex="1" parent="s1b5WdfS_iwDhDCuZPvK-154">
          <mxGeometry width="17" height="10" as="geometry">
            <mxRectangle width="17" height="10" as="alternateBounds" />
          </mxGeometry>
        </mxCell>
        <mxCell id="s1b5WdfS_iwDhDCuZPvK-178" style="shape=partialRectangle;html=1;whiteSpace=wrap;connectable=0;strokeColor=inherit;overflow=hidden;fillColor=none;top=0;left=0;bottom=0;right=0;pointerEvents=1;fontSize=16;" vertex="1" parent="s1b5WdfS_iwDhDCuZPvK-154">
          <mxGeometry x="17" width="17" height="10" as="geometry">
            <mxRectangle width="17" height="10" as="alternateBounds" />
          </mxGeometry>
        </mxCell>
        <mxCell id="s1b5WdfS_iwDhDCuZPvK-171" style="shape=partialRectangle;html=1;whiteSpace=wrap;connectable=0;strokeColor=inherit;overflow=hidden;fillColor=none;top=0;left=0;bottom=0;right=0;pointerEvents=1;fontSize=16;" vertex="1" parent="s1b5WdfS_iwDhDCuZPvK-154">
          <mxGeometry x="34" width="17" height="10" as="geometry">
            <mxRectangle width="17" height="10" as="alternateBounds" />
          </mxGeometry>
        </mxCell>
        <mxCell id="s1b5WdfS_iwDhDCuZPvK-164" style="shape=partialRectangle;html=1;whiteSpace=wrap;connectable=0;strokeColor=inherit;overflow=hidden;fillColor=none;top=0;left=0;bottom=0;right=0;pointerEvents=1;fontSize=16;" vertex="1" parent="s1b5WdfS_iwDhDCuZPvK-154">
          <mxGeometry x="51" width="17" height="10" as="geometry">
            <mxRectangle width="17" height="10" as="alternateBounds" />
          </mxGeometry>
        </mxCell>
        <mxCell id="s1b5WdfS_iwDhDCuZPvK-155" style="shape=partialRectangle;html=1;whiteSpace=wrap;connectable=0;strokeColor=inherit;overflow=hidden;fillColor=none;top=0;left=0;bottom=0;right=0;pointerEvents=1;fontSize=16;" vertex="1" parent="s1b5WdfS_iwDhDCuZPvK-154">
          <mxGeometry x="68" width="17" height="10" as="geometry">
            <mxRectangle width="17" height="10" as="alternateBounds" />
          </mxGeometry>
        </mxCell>
        <mxCell id="s1b5WdfS_iwDhDCuZPvK-156" value="" style="endArrow=classic;html=1;rounded=0;entryX=0;entryY=0.5;entryDx=0;entryDy=0;" edge="1" parent="1">
          <mxGeometry width="50" height="50" relative="1" as="geometry">
            <mxPoint x="877" y="414.5" as="sourcePoint" />
            <mxPoint x="934" y="414.5" as="targetPoint" />
          </mxGeometry>
        </mxCell>
        <mxCell id="s1b5WdfS_iwDhDCuZPvK-157" value="Similarities values" style="text;html=1;align=center;verticalAlign=middle;whiteSpace=wrap;rounded=0;" vertex="1" parent="1">
          <mxGeometry x="911" y="458" width="81" height="30" as="geometry" />
        </mxCell>
        <mxCell id="s1b5WdfS_iwDhDCuZPvK-186" value="" style="endArrow=classic;html=1;rounded=0;" edge="1" parent="1">
          <mxGeometry width="50" height="50" relative="1" as="geometry">
            <mxPoint x="1054" y="412.5" as="sourcePoint" />
            <mxPoint x="1131" y="330" as="targetPoint" />
          </mxGeometry>
        </mxCell>
        <mxCell id="s1b5WdfS_iwDhDCuZPvK-187" value="" style="endArrow=classic;html=1;rounded=0;" edge="1" parent="1">
          <mxGeometry width="50" height="50" relative="1" as="geometry">
            <mxPoint x="881" y="230" as="sourcePoint" />
            <mxPoint x="1131" y="310" as="targetPoint" />
          </mxGeometry>
        </mxCell>
        <mxCell id="s1b5WdfS_iwDhDCuZPvK-188" value="" style="shape=table;startSize=0;container=1;collapsible=0;childLayout=tableLayout;fontSize=16;fillColor=#f5f5f5;fontColor=#333333;strokeColor=#666666;" vertex="1" parent="1">
          <mxGeometry x="1141" y="288" width="101" height="70" as="geometry" />
        </mxCell>
        <mxCell id="s1b5WdfS_iwDhDCuZPvK-189" style="shape=tableRow;horizontal=0;startSize=0;swimlaneHead=0;swimlaneBody=0;strokeColor=inherit;top=0;left=0;bottom=0;right=0;collapsible=0;dropTarget=0;fillColor=none;points=[[0,0.5],[1,0.5]];portConstraint=eastwest;fontSize=16;" vertex="1" parent="s1b5WdfS_iwDhDCuZPvK-188">
          <mxGeometry width="101" height="10" as="geometry" />
        </mxCell>
        <mxCell id="s1b5WdfS_iwDhDCuZPvK-190" style="shape=partialRectangle;html=1;whiteSpace=wrap;connectable=0;strokeColor=inherit;overflow=hidden;fillColor=none;top=0;left=0;bottom=0;right=0;pointerEvents=1;fontSize=16;" vertex="1" parent="s1b5WdfS_iwDhDCuZPvK-189">
          <mxGeometry width="17" height="10" as="geometry">
            <mxRectangle width="17" height="10" as="alternateBounds" />
          </mxGeometry>
        </mxCell>
        <mxCell id="s1b5WdfS_iwDhDCuZPvK-191" style="shape=partialRectangle;html=1;whiteSpace=wrap;connectable=0;strokeColor=inherit;overflow=hidden;fillColor=none;top=0;left=0;bottom=0;right=0;pointerEvents=1;fontSize=16;" vertex="1" parent="s1b5WdfS_iwDhDCuZPvK-189">
          <mxGeometry x="17" width="16" height="10" as="geometry">
            <mxRectangle width="16" height="10" as="alternateBounds" />
          </mxGeometry>
        </mxCell>
        <mxCell id="s1b5WdfS_iwDhDCuZPvK-192" style="shape=partialRectangle;html=1;whiteSpace=wrap;connectable=0;strokeColor=inherit;overflow=hidden;fillColor=none;top=0;left=0;bottom=0;right=0;pointerEvents=1;fontSize=16;" vertex="1" parent="s1b5WdfS_iwDhDCuZPvK-189">
          <mxGeometry x="33" width="17" height="10" as="geometry">
            <mxRectangle width="17" height="10" as="alternateBounds" />
          </mxGeometry>
        </mxCell>
        <mxCell id="s1b5WdfS_iwDhDCuZPvK-193" style="shape=partialRectangle;html=1;whiteSpace=wrap;connectable=0;strokeColor=inherit;overflow=hidden;fillColor=none;top=0;left=0;bottom=0;right=0;pointerEvents=1;fontSize=16;" vertex="1" parent="s1b5WdfS_iwDhDCuZPvK-189">
          <mxGeometry x="50" width="17" height="10" as="geometry">
            <mxRectangle width="17" height="10" as="alternateBounds" />
          </mxGeometry>
        </mxCell>
        <mxCell id="s1b5WdfS_iwDhDCuZPvK-194" style="shape=partialRectangle;html=1;whiteSpace=wrap;connectable=0;strokeColor=inherit;overflow=hidden;fillColor=none;top=0;left=0;bottom=0;right=0;pointerEvents=1;fontSize=16;" vertex="1" parent="s1b5WdfS_iwDhDCuZPvK-189">
          <mxGeometry x="67" width="17" height="10" as="geometry">
            <mxRectangle width="17" height="10" as="alternateBounds" />
          </mxGeometry>
        </mxCell>
        <mxCell id="s1b5WdfS_iwDhDCuZPvK-195" style="shape=partialRectangle;html=1;whiteSpace=wrap;connectable=0;strokeColor=inherit;overflow=hidden;fillColor=none;top=0;left=0;bottom=0;right=0;pointerEvents=1;fontSize=16;" vertex="1" parent="s1b5WdfS_iwDhDCuZPvK-189">
          <mxGeometry x="84" width="17" height="10" as="geometry">
            <mxRectangle width="17" height="10" as="alternateBounds" />
          </mxGeometry>
        </mxCell>
        <mxCell id="s1b5WdfS_iwDhDCuZPvK-196" value="" style="shape=tableRow;horizontal=0;startSize=0;swimlaneHead=0;swimlaneBody=0;strokeColor=inherit;top=0;left=0;bottom=0;right=0;collapsible=0;dropTarget=0;fillColor=none;points=[[0,0.5],[1,0.5]];portConstraint=eastwest;fontSize=16;" vertex="1" parent="s1b5WdfS_iwDhDCuZPvK-188">
          <mxGeometry y="10" width="101" height="10" as="geometry" />
        </mxCell>
        <mxCell id="s1b5WdfS_iwDhDCuZPvK-197" value="" style="shape=partialRectangle;html=1;whiteSpace=wrap;connectable=0;strokeColor=inherit;overflow=hidden;fillColor=none;top=0;left=0;bottom=0;right=0;pointerEvents=1;fontSize=16;" vertex="1" parent="s1b5WdfS_iwDhDCuZPvK-196">
          <mxGeometry width="17" height="10" as="geometry">
            <mxRectangle width="17" height="10" as="alternateBounds" />
          </mxGeometry>
        </mxCell>
        <mxCell id="s1b5WdfS_iwDhDCuZPvK-198" value="" style="shape=partialRectangle;html=1;whiteSpace=wrap;connectable=0;strokeColor=inherit;overflow=hidden;fillColor=none;top=0;left=0;bottom=0;right=0;pointerEvents=1;fontSize=16;" vertex="1" parent="s1b5WdfS_iwDhDCuZPvK-196">
          <mxGeometry x="17" width="16" height="10" as="geometry">
            <mxRectangle width="16" height="10" as="alternateBounds" />
          </mxGeometry>
        </mxCell>
        <mxCell id="s1b5WdfS_iwDhDCuZPvK-199" value="" style="shape=partialRectangle;html=1;whiteSpace=wrap;connectable=0;strokeColor=inherit;overflow=hidden;fillColor=none;top=0;left=0;bottom=0;right=0;pointerEvents=1;fontSize=16;" vertex="1" parent="s1b5WdfS_iwDhDCuZPvK-196">
          <mxGeometry x="33" width="17" height="10" as="geometry">
            <mxRectangle width="17" height="10" as="alternateBounds" />
          </mxGeometry>
        </mxCell>
        <mxCell id="s1b5WdfS_iwDhDCuZPvK-200" style="shape=partialRectangle;html=1;whiteSpace=wrap;connectable=0;strokeColor=inherit;overflow=hidden;fillColor=none;top=0;left=0;bottom=0;right=0;pointerEvents=1;fontSize=16;" vertex="1" parent="s1b5WdfS_iwDhDCuZPvK-196">
          <mxGeometry x="50" width="17" height="10" as="geometry">
            <mxRectangle width="17" height="10" as="alternateBounds" />
          </mxGeometry>
        </mxCell>
        <mxCell id="s1b5WdfS_iwDhDCuZPvK-201" style="shape=partialRectangle;html=1;whiteSpace=wrap;connectable=0;strokeColor=inherit;overflow=hidden;fillColor=none;top=0;left=0;bottom=0;right=0;pointerEvents=1;fontSize=16;" vertex="1" parent="s1b5WdfS_iwDhDCuZPvK-196">
          <mxGeometry x="67" width="17" height="10" as="geometry">
            <mxRectangle width="17" height="10" as="alternateBounds" />
          </mxGeometry>
        </mxCell>
        <mxCell id="s1b5WdfS_iwDhDCuZPvK-202" style="shape=partialRectangle;html=1;whiteSpace=wrap;connectable=0;strokeColor=inherit;overflow=hidden;fillColor=none;top=0;left=0;bottom=0;right=0;pointerEvents=1;fontSize=16;" vertex="1" parent="s1b5WdfS_iwDhDCuZPvK-196">
          <mxGeometry x="84" width="17" height="10" as="geometry">
            <mxRectangle width="17" height="10" as="alternateBounds" />
          </mxGeometry>
        </mxCell>
        <mxCell id="s1b5WdfS_iwDhDCuZPvK-203" style="shape=tableRow;horizontal=0;startSize=0;swimlaneHead=0;swimlaneBody=0;strokeColor=inherit;top=0;left=0;bottom=0;right=0;collapsible=0;dropTarget=0;fillColor=none;points=[[0,0.5],[1,0.5]];portConstraint=eastwest;fontSize=16;" vertex="1" parent="s1b5WdfS_iwDhDCuZPvK-188">
          <mxGeometry y="20" width="101" height="10" as="geometry" />
        </mxCell>
        <mxCell id="s1b5WdfS_iwDhDCuZPvK-204" style="shape=partialRectangle;html=1;whiteSpace=wrap;connectable=0;strokeColor=inherit;overflow=hidden;fillColor=none;top=0;left=0;bottom=0;right=0;pointerEvents=1;fontSize=16;" vertex="1" parent="s1b5WdfS_iwDhDCuZPvK-203">
          <mxGeometry width="17" height="10" as="geometry">
            <mxRectangle width="17" height="10" as="alternateBounds" />
          </mxGeometry>
        </mxCell>
        <mxCell id="s1b5WdfS_iwDhDCuZPvK-205" style="shape=partialRectangle;html=1;whiteSpace=wrap;connectable=0;strokeColor=inherit;overflow=hidden;fillColor=none;top=0;left=0;bottom=0;right=0;pointerEvents=1;fontSize=16;" vertex="1" parent="s1b5WdfS_iwDhDCuZPvK-203">
          <mxGeometry x="17" width="16" height="10" as="geometry">
            <mxRectangle width="16" height="10" as="alternateBounds" />
          </mxGeometry>
        </mxCell>
        <mxCell id="s1b5WdfS_iwDhDCuZPvK-206" style="shape=partialRectangle;html=1;whiteSpace=wrap;connectable=0;strokeColor=inherit;overflow=hidden;fillColor=none;top=0;left=0;bottom=0;right=0;pointerEvents=1;fontSize=16;" vertex="1" parent="s1b5WdfS_iwDhDCuZPvK-203">
          <mxGeometry x="33" width="17" height="10" as="geometry">
            <mxRectangle width="17" height="10" as="alternateBounds" />
          </mxGeometry>
        </mxCell>
        <mxCell id="s1b5WdfS_iwDhDCuZPvK-207" style="shape=partialRectangle;html=1;whiteSpace=wrap;connectable=0;strokeColor=inherit;overflow=hidden;fillColor=none;top=0;left=0;bottom=0;right=0;pointerEvents=1;fontSize=16;" vertex="1" parent="s1b5WdfS_iwDhDCuZPvK-203">
          <mxGeometry x="50" width="17" height="10" as="geometry">
            <mxRectangle width="17" height="10" as="alternateBounds" />
          </mxGeometry>
        </mxCell>
        <mxCell id="s1b5WdfS_iwDhDCuZPvK-208" style="shape=partialRectangle;html=1;whiteSpace=wrap;connectable=0;strokeColor=inherit;overflow=hidden;fillColor=none;top=0;left=0;bottom=0;right=0;pointerEvents=1;fontSize=16;" vertex="1" parent="s1b5WdfS_iwDhDCuZPvK-203">
          <mxGeometry x="67" width="17" height="10" as="geometry">
            <mxRectangle width="17" height="10" as="alternateBounds" />
          </mxGeometry>
        </mxCell>
        <mxCell id="s1b5WdfS_iwDhDCuZPvK-209" style="shape=partialRectangle;html=1;whiteSpace=wrap;connectable=0;strokeColor=inherit;overflow=hidden;fillColor=none;top=0;left=0;bottom=0;right=0;pointerEvents=1;fontSize=16;" vertex="1" parent="s1b5WdfS_iwDhDCuZPvK-203">
          <mxGeometry x="84" width="17" height="10" as="geometry">
            <mxRectangle width="17" height="10" as="alternateBounds" />
          </mxGeometry>
        </mxCell>
        <mxCell id="s1b5WdfS_iwDhDCuZPvK-210" style="shape=tableRow;horizontal=0;startSize=0;swimlaneHead=0;swimlaneBody=0;strokeColor=inherit;top=0;left=0;bottom=0;right=0;collapsible=0;dropTarget=0;fillColor=none;points=[[0,0.5],[1,0.5]];portConstraint=eastwest;fontSize=16;" vertex="1" parent="s1b5WdfS_iwDhDCuZPvK-188">
          <mxGeometry y="30" width="101" height="10" as="geometry" />
        </mxCell>
        <mxCell id="s1b5WdfS_iwDhDCuZPvK-211" style="shape=partialRectangle;html=1;whiteSpace=wrap;connectable=0;strokeColor=inherit;overflow=hidden;fillColor=none;top=0;left=0;bottom=0;right=0;pointerEvents=1;fontSize=16;" vertex="1" parent="s1b5WdfS_iwDhDCuZPvK-210">
          <mxGeometry width="17" height="10" as="geometry">
            <mxRectangle width="17" height="10" as="alternateBounds" />
          </mxGeometry>
        </mxCell>
        <mxCell id="s1b5WdfS_iwDhDCuZPvK-212" style="shape=partialRectangle;html=1;whiteSpace=wrap;connectable=0;strokeColor=inherit;overflow=hidden;fillColor=none;top=0;left=0;bottom=0;right=0;pointerEvents=1;fontSize=16;" vertex="1" parent="s1b5WdfS_iwDhDCuZPvK-210">
          <mxGeometry x="17" width="16" height="10" as="geometry">
            <mxRectangle width="16" height="10" as="alternateBounds" />
          </mxGeometry>
        </mxCell>
        <mxCell id="s1b5WdfS_iwDhDCuZPvK-213" style="shape=partialRectangle;html=1;whiteSpace=wrap;connectable=0;strokeColor=inherit;overflow=hidden;fillColor=none;top=0;left=0;bottom=0;right=0;pointerEvents=1;fontSize=16;" vertex="1" parent="s1b5WdfS_iwDhDCuZPvK-210">
          <mxGeometry x="33" width="17" height="10" as="geometry">
            <mxRectangle width="17" height="10" as="alternateBounds" />
          </mxGeometry>
        </mxCell>
        <mxCell id="s1b5WdfS_iwDhDCuZPvK-214" style="shape=partialRectangle;html=1;whiteSpace=wrap;connectable=0;strokeColor=inherit;overflow=hidden;fillColor=none;top=0;left=0;bottom=0;right=0;pointerEvents=1;fontSize=16;" vertex="1" parent="s1b5WdfS_iwDhDCuZPvK-210">
          <mxGeometry x="50" width="17" height="10" as="geometry">
            <mxRectangle width="17" height="10" as="alternateBounds" />
          </mxGeometry>
        </mxCell>
        <mxCell id="s1b5WdfS_iwDhDCuZPvK-215" style="shape=partialRectangle;html=1;whiteSpace=wrap;connectable=0;strokeColor=inherit;overflow=hidden;fillColor=none;top=0;left=0;bottom=0;right=0;pointerEvents=1;fontSize=16;" vertex="1" parent="s1b5WdfS_iwDhDCuZPvK-210">
          <mxGeometry x="67" width="17" height="10" as="geometry">
            <mxRectangle width="17" height="10" as="alternateBounds" />
          </mxGeometry>
        </mxCell>
        <mxCell id="s1b5WdfS_iwDhDCuZPvK-216" style="shape=partialRectangle;html=1;whiteSpace=wrap;connectable=0;strokeColor=inherit;overflow=hidden;fillColor=none;top=0;left=0;bottom=0;right=0;pointerEvents=1;fontSize=16;" vertex="1" parent="s1b5WdfS_iwDhDCuZPvK-210">
          <mxGeometry x="84" width="17" height="10" as="geometry">
            <mxRectangle width="17" height="10" as="alternateBounds" />
          </mxGeometry>
        </mxCell>
        <mxCell id="s1b5WdfS_iwDhDCuZPvK-217" style="shape=tableRow;horizontal=0;startSize=0;swimlaneHead=0;swimlaneBody=0;strokeColor=inherit;top=0;left=0;bottom=0;right=0;collapsible=0;dropTarget=0;fillColor=none;points=[[0,0.5],[1,0.5]];portConstraint=eastwest;fontSize=16;" vertex="1" parent="s1b5WdfS_iwDhDCuZPvK-188">
          <mxGeometry y="40" width="101" height="10" as="geometry" />
        </mxCell>
        <mxCell id="s1b5WdfS_iwDhDCuZPvK-218" style="shape=partialRectangle;html=1;whiteSpace=wrap;connectable=0;strokeColor=inherit;overflow=hidden;fillColor=none;top=0;left=0;bottom=0;right=0;pointerEvents=1;fontSize=16;" vertex="1" parent="s1b5WdfS_iwDhDCuZPvK-217">
          <mxGeometry width="17" height="10" as="geometry">
            <mxRectangle width="17" height="10" as="alternateBounds" />
          </mxGeometry>
        </mxCell>
        <mxCell id="s1b5WdfS_iwDhDCuZPvK-219" style="shape=partialRectangle;html=1;whiteSpace=wrap;connectable=0;strokeColor=inherit;overflow=hidden;fillColor=none;top=0;left=0;bottom=0;right=0;pointerEvents=1;fontSize=16;" vertex="1" parent="s1b5WdfS_iwDhDCuZPvK-217">
          <mxGeometry x="17" width="16" height="10" as="geometry">
            <mxRectangle width="16" height="10" as="alternateBounds" />
          </mxGeometry>
        </mxCell>
        <mxCell id="s1b5WdfS_iwDhDCuZPvK-220" style="shape=partialRectangle;html=1;whiteSpace=wrap;connectable=0;strokeColor=inherit;overflow=hidden;fillColor=none;top=0;left=0;bottom=0;right=0;pointerEvents=1;fontSize=16;" vertex="1" parent="s1b5WdfS_iwDhDCuZPvK-217">
          <mxGeometry x="33" width="17" height="10" as="geometry">
            <mxRectangle width="17" height="10" as="alternateBounds" />
          </mxGeometry>
        </mxCell>
        <mxCell id="s1b5WdfS_iwDhDCuZPvK-221" style="shape=partialRectangle;html=1;whiteSpace=wrap;connectable=0;strokeColor=inherit;overflow=hidden;fillColor=none;top=0;left=0;bottom=0;right=0;pointerEvents=1;fontSize=16;" vertex="1" parent="s1b5WdfS_iwDhDCuZPvK-217">
          <mxGeometry x="50" width="17" height="10" as="geometry">
            <mxRectangle width="17" height="10" as="alternateBounds" />
          </mxGeometry>
        </mxCell>
        <mxCell id="s1b5WdfS_iwDhDCuZPvK-222" style="shape=partialRectangle;html=1;whiteSpace=wrap;connectable=0;strokeColor=inherit;overflow=hidden;fillColor=none;top=0;left=0;bottom=0;right=0;pointerEvents=1;fontSize=16;" vertex="1" parent="s1b5WdfS_iwDhDCuZPvK-217">
          <mxGeometry x="67" width="17" height="10" as="geometry">
            <mxRectangle width="17" height="10" as="alternateBounds" />
          </mxGeometry>
        </mxCell>
        <mxCell id="s1b5WdfS_iwDhDCuZPvK-223" style="shape=partialRectangle;html=1;whiteSpace=wrap;connectable=0;strokeColor=inherit;overflow=hidden;fillColor=none;top=0;left=0;bottom=0;right=0;pointerEvents=1;fontSize=16;" vertex="1" parent="s1b5WdfS_iwDhDCuZPvK-217">
          <mxGeometry x="84" width="17" height="10" as="geometry">
            <mxRectangle width="17" height="10" as="alternateBounds" />
          </mxGeometry>
        </mxCell>
        <mxCell id="s1b5WdfS_iwDhDCuZPvK-224" style="shape=tableRow;horizontal=0;startSize=0;swimlaneHead=0;swimlaneBody=0;strokeColor=inherit;top=0;left=0;bottom=0;right=0;collapsible=0;dropTarget=0;fillColor=none;points=[[0,0.5],[1,0.5]];portConstraint=eastwest;fontSize=16;" vertex="1" parent="s1b5WdfS_iwDhDCuZPvK-188">
          <mxGeometry y="50" width="101" height="10" as="geometry" />
        </mxCell>
        <mxCell id="s1b5WdfS_iwDhDCuZPvK-225" style="shape=partialRectangle;html=1;whiteSpace=wrap;connectable=0;strokeColor=inherit;overflow=hidden;fillColor=none;top=0;left=0;bottom=0;right=0;pointerEvents=1;fontSize=16;" vertex="1" parent="s1b5WdfS_iwDhDCuZPvK-224">
          <mxGeometry width="17" height="10" as="geometry">
            <mxRectangle width="17" height="10" as="alternateBounds" />
          </mxGeometry>
        </mxCell>
        <mxCell id="s1b5WdfS_iwDhDCuZPvK-226" style="shape=partialRectangle;html=1;whiteSpace=wrap;connectable=0;strokeColor=inherit;overflow=hidden;fillColor=none;top=0;left=0;bottom=0;right=0;pointerEvents=1;fontSize=16;" vertex="1" parent="s1b5WdfS_iwDhDCuZPvK-224">
          <mxGeometry x="17" width="16" height="10" as="geometry">
            <mxRectangle width="16" height="10" as="alternateBounds" />
          </mxGeometry>
        </mxCell>
        <mxCell id="s1b5WdfS_iwDhDCuZPvK-227" style="shape=partialRectangle;html=1;whiteSpace=wrap;connectable=0;strokeColor=inherit;overflow=hidden;fillColor=none;top=0;left=0;bottom=0;right=0;pointerEvents=1;fontSize=16;" vertex="1" parent="s1b5WdfS_iwDhDCuZPvK-224">
          <mxGeometry x="33" width="17" height="10" as="geometry">
            <mxRectangle width="17" height="10" as="alternateBounds" />
          </mxGeometry>
        </mxCell>
        <mxCell id="s1b5WdfS_iwDhDCuZPvK-228" style="shape=partialRectangle;html=1;whiteSpace=wrap;connectable=0;strokeColor=inherit;overflow=hidden;fillColor=none;top=0;left=0;bottom=0;right=0;pointerEvents=1;fontSize=16;" vertex="1" parent="s1b5WdfS_iwDhDCuZPvK-224">
          <mxGeometry x="50" width="17" height="10" as="geometry">
            <mxRectangle width="17" height="10" as="alternateBounds" />
          </mxGeometry>
        </mxCell>
        <mxCell id="s1b5WdfS_iwDhDCuZPvK-229" style="shape=partialRectangle;html=1;whiteSpace=wrap;connectable=0;strokeColor=inherit;overflow=hidden;fillColor=none;top=0;left=0;bottom=0;right=0;pointerEvents=1;fontSize=16;" vertex="1" parent="s1b5WdfS_iwDhDCuZPvK-224">
          <mxGeometry x="67" width="17" height="10" as="geometry">
            <mxRectangle width="17" height="10" as="alternateBounds" />
          </mxGeometry>
        </mxCell>
        <mxCell id="s1b5WdfS_iwDhDCuZPvK-230" style="shape=partialRectangle;html=1;whiteSpace=wrap;connectable=0;strokeColor=inherit;overflow=hidden;fillColor=none;top=0;left=0;bottom=0;right=0;pointerEvents=1;fontSize=16;" vertex="1" parent="s1b5WdfS_iwDhDCuZPvK-224">
          <mxGeometry x="84" width="17" height="10" as="geometry">
            <mxRectangle width="17" height="10" as="alternateBounds" />
          </mxGeometry>
        </mxCell>
        <mxCell id="s1b5WdfS_iwDhDCuZPvK-231" style="shape=tableRow;horizontal=0;startSize=0;swimlaneHead=0;swimlaneBody=0;strokeColor=inherit;top=0;left=0;bottom=0;right=0;collapsible=0;dropTarget=0;fillColor=none;points=[[0,0.5],[1,0.5]];portConstraint=eastwest;fontSize=16;" vertex="1" parent="s1b5WdfS_iwDhDCuZPvK-188">
          <mxGeometry y="60" width="101" height="10" as="geometry" />
        </mxCell>
        <mxCell id="s1b5WdfS_iwDhDCuZPvK-232" style="shape=partialRectangle;html=1;whiteSpace=wrap;connectable=0;strokeColor=inherit;overflow=hidden;fillColor=none;top=0;left=0;bottom=0;right=0;pointerEvents=1;fontSize=16;" vertex="1" parent="s1b5WdfS_iwDhDCuZPvK-231">
          <mxGeometry width="17" height="10" as="geometry">
            <mxRectangle width="17" height="10" as="alternateBounds" />
          </mxGeometry>
        </mxCell>
        <mxCell id="s1b5WdfS_iwDhDCuZPvK-233" style="shape=partialRectangle;html=1;whiteSpace=wrap;connectable=0;strokeColor=inherit;overflow=hidden;fillColor=none;top=0;left=0;bottom=0;right=0;pointerEvents=1;fontSize=16;" vertex="1" parent="s1b5WdfS_iwDhDCuZPvK-231">
          <mxGeometry x="17" width="16" height="10" as="geometry">
            <mxRectangle width="16" height="10" as="alternateBounds" />
          </mxGeometry>
        </mxCell>
        <mxCell id="s1b5WdfS_iwDhDCuZPvK-234" style="shape=partialRectangle;html=1;whiteSpace=wrap;connectable=0;strokeColor=inherit;overflow=hidden;fillColor=none;top=0;left=0;bottom=0;right=0;pointerEvents=1;fontSize=16;" vertex="1" parent="s1b5WdfS_iwDhDCuZPvK-231">
          <mxGeometry x="33" width="17" height="10" as="geometry">
            <mxRectangle width="17" height="10" as="alternateBounds" />
          </mxGeometry>
        </mxCell>
        <mxCell id="s1b5WdfS_iwDhDCuZPvK-235" style="shape=partialRectangle;html=1;whiteSpace=wrap;connectable=0;strokeColor=inherit;overflow=hidden;fillColor=none;top=0;left=0;bottom=0;right=0;pointerEvents=1;fontSize=16;" vertex="1" parent="s1b5WdfS_iwDhDCuZPvK-231">
          <mxGeometry x="50" width="17" height="10" as="geometry">
            <mxRectangle width="17" height="10" as="alternateBounds" />
          </mxGeometry>
        </mxCell>
        <mxCell id="s1b5WdfS_iwDhDCuZPvK-236" style="shape=partialRectangle;html=1;whiteSpace=wrap;connectable=0;strokeColor=inherit;overflow=hidden;fillColor=none;top=0;left=0;bottom=0;right=0;pointerEvents=1;fontSize=16;" vertex="1" parent="s1b5WdfS_iwDhDCuZPvK-231">
          <mxGeometry x="67" width="17" height="10" as="geometry">
            <mxRectangle width="17" height="10" as="alternateBounds" />
          </mxGeometry>
        </mxCell>
        <mxCell id="s1b5WdfS_iwDhDCuZPvK-237" style="shape=partialRectangle;html=1;whiteSpace=wrap;connectable=0;strokeColor=inherit;overflow=hidden;fillColor=none;top=0;left=0;bottom=0;right=0;pointerEvents=1;fontSize=16;" vertex="1" parent="s1b5WdfS_iwDhDCuZPvK-231">
          <mxGeometry x="84" width="17" height="10" as="geometry">
            <mxRectangle width="17" height="10" as="alternateBounds" />
          </mxGeometry>
        </mxCell>
        <mxCell id="s1b5WdfS_iwDhDCuZPvK-238" value="" style="shape=table;startSize=0;container=1;collapsible=0;childLayout=tableLayout;fontSize=16;fillColor=#dae8fc;strokeColor=#6c8ebf;" vertex="1" parent="1">
          <mxGeometry x="1246" y="288" width="85" height="70" as="geometry" />
        </mxCell>
        <mxCell id="s1b5WdfS_iwDhDCuZPvK-239" value="" style="shape=tableRow;horizontal=0;startSize=0;swimlaneHead=0;swimlaneBody=0;strokeColor=inherit;top=0;left=0;bottom=0;right=0;collapsible=0;dropTarget=0;fillColor=none;points=[[0,0.5],[1,0.5]];portConstraint=eastwest;fontSize=16;" vertex="1" parent="s1b5WdfS_iwDhDCuZPvK-238">
          <mxGeometry width="85" height="10" as="geometry" />
        </mxCell>
        <mxCell id="s1b5WdfS_iwDhDCuZPvK-240" style="shape=partialRectangle;html=1;whiteSpace=wrap;connectable=0;strokeColor=inherit;overflow=hidden;fillColor=none;top=0;left=0;bottom=0;right=0;pointerEvents=1;fontSize=16;" vertex="1" parent="s1b5WdfS_iwDhDCuZPvK-239">
          <mxGeometry width="17" height="10" as="geometry">
            <mxRectangle width="17" height="10" as="alternateBounds" />
          </mxGeometry>
        </mxCell>
        <mxCell id="s1b5WdfS_iwDhDCuZPvK-241" style="shape=partialRectangle;html=1;whiteSpace=wrap;connectable=0;strokeColor=inherit;overflow=hidden;fillColor=none;top=0;left=0;bottom=0;right=0;pointerEvents=1;fontSize=16;" vertex="1" parent="s1b5WdfS_iwDhDCuZPvK-239">
          <mxGeometry x="17" width="17" height="10" as="geometry">
            <mxRectangle width="17" height="10" as="alternateBounds" />
          </mxGeometry>
        </mxCell>
        <mxCell id="s1b5WdfS_iwDhDCuZPvK-242" style="shape=partialRectangle;html=1;whiteSpace=wrap;connectable=0;strokeColor=inherit;overflow=hidden;fillColor=none;top=0;left=0;bottom=0;right=0;pointerEvents=1;fontSize=16;" vertex="1" parent="s1b5WdfS_iwDhDCuZPvK-239">
          <mxGeometry x="34" width="17" height="10" as="geometry">
            <mxRectangle width="17" height="10" as="alternateBounds" />
          </mxGeometry>
        </mxCell>
        <mxCell id="s1b5WdfS_iwDhDCuZPvK-243" style="shape=partialRectangle;html=1;whiteSpace=wrap;connectable=0;strokeColor=inherit;overflow=hidden;fillColor=none;top=0;left=0;bottom=0;right=0;pointerEvents=1;fontSize=16;" vertex="1" parent="s1b5WdfS_iwDhDCuZPvK-239">
          <mxGeometry x="51" width="17" height="10" as="geometry">
            <mxRectangle width="17" height="10" as="alternateBounds" />
          </mxGeometry>
        </mxCell>
        <mxCell id="s1b5WdfS_iwDhDCuZPvK-244" value="" style="shape=partialRectangle;html=1;whiteSpace=wrap;connectable=0;strokeColor=inherit;overflow=hidden;fillColor=none;top=0;left=0;bottom=0;right=0;pointerEvents=1;fontSize=16;" vertex="1" parent="s1b5WdfS_iwDhDCuZPvK-239">
          <mxGeometry x="68" width="17" height="10" as="geometry">
            <mxRectangle width="17" height="10" as="alternateBounds" />
          </mxGeometry>
        </mxCell>
        <mxCell id="s1b5WdfS_iwDhDCuZPvK-245" style="shape=tableRow;horizontal=0;startSize=0;swimlaneHead=0;swimlaneBody=0;strokeColor=inherit;top=0;left=0;bottom=0;right=0;collapsible=0;dropTarget=0;fillColor=none;points=[[0,0.5],[1,0.5]];portConstraint=eastwest;fontSize=16;" vertex="1" parent="s1b5WdfS_iwDhDCuZPvK-238">
          <mxGeometry y="10" width="85" height="10" as="geometry" />
        </mxCell>
        <mxCell id="s1b5WdfS_iwDhDCuZPvK-246" style="shape=partialRectangle;html=1;whiteSpace=wrap;connectable=0;strokeColor=inherit;overflow=hidden;fillColor=none;top=0;left=0;bottom=0;right=0;pointerEvents=1;fontSize=16;" vertex="1" parent="s1b5WdfS_iwDhDCuZPvK-245">
          <mxGeometry width="17" height="10" as="geometry">
            <mxRectangle width="17" height="10" as="alternateBounds" />
          </mxGeometry>
        </mxCell>
        <mxCell id="s1b5WdfS_iwDhDCuZPvK-247" style="shape=partialRectangle;html=1;whiteSpace=wrap;connectable=0;strokeColor=inherit;overflow=hidden;fillColor=none;top=0;left=0;bottom=0;right=0;pointerEvents=1;fontSize=16;" vertex="1" parent="s1b5WdfS_iwDhDCuZPvK-245">
          <mxGeometry x="17" width="17" height="10" as="geometry">
            <mxRectangle width="17" height="10" as="alternateBounds" />
          </mxGeometry>
        </mxCell>
        <mxCell id="s1b5WdfS_iwDhDCuZPvK-248" style="shape=partialRectangle;html=1;whiteSpace=wrap;connectable=0;strokeColor=inherit;overflow=hidden;fillColor=none;top=0;left=0;bottom=0;right=0;pointerEvents=1;fontSize=16;" vertex="1" parent="s1b5WdfS_iwDhDCuZPvK-245">
          <mxGeometry x="34" width="17" height="10" as="geometry">
            <mxRectangle width="17" height="10" as="alternateBounds" />
          </mxGeometry>
        </mxCell>
        <mxCell id="s1b5WdfS_iwDhDCuZPvK-249" style="shape=partialRectangle;html=1;whiteSpace=wrap;connectable=0;strokeColor=inherit;overflow=hidden;fillColor=none;top=0;left=0;bottom=0;right=0;pointerEvents=1;fontSize=16;" vertex="1" parent="s1b5WdfS_iwDhDCuZPvK-245">
          <mxGeometry x="51" width="17" height="10" as="geometry">
            <mxRectangle width="17" height="10" as="alternateBounds" />
          </mxGeometry>
        </mxCell>
        <mxCell id="s1b5WdfS_iwDhDCuZPvK-250" style="shape=partialRectangle;html=1;whiteSpace=wrap;connectable=0;strokeColor=inherit;overflow=hidden;fillColor=none;top=0;left=0;bottom=0;right=0;pointerEvents=1;fontSize=16;" vertex="1" parent="s1b5WdfS_iwDhDCuZPvK-245">
          <mxGeometry x="68" width="17" height="10" as="geometry">
            <mxRectangle width="17" height="10" as="alternateBounds" />
          </mxGeometry>
        </mxCell>
        <mxCell id="s1b5WdfS_iwDhDCuZPvK-251" style="shape=tableRow;horizontal=0;startSize=0;swimlaneHead=0;swimlaneBody=0;strokeColor=inherit;top=0;left=0;bottom=0;right=0;collapsible=0;dropTarget=0;fillColor=none;points=[[0,0.5],[1,0.5]];portConstraint=eastwest;fontSize=16;" vertex="1" parent="s1b5WdfS_iwDhDCuZPvK-238">
          <mxGeometry y="20" width="85" height="10" as="geometry" />
        </mxCell>
        <mxCell id="s1b5WdfS_iwDhDCuZPvK-252" style="shape=partialRectangle;html=1;whiteSpace=wrap;connectable=0;strokeColor=inherit;overflow=hidden;fillColor=none;top=0;left=0;bottom=0;right=0;pointerEvents=1;fontSize=16;" vertex="1" parent="s1b5WdfS_iwDhDCuZPvK-251">
          <mxGeometry width="17" height="10" as="geometry">
            <mxRectangle width="17" height="10" as="alternateBounds" />
          </mxGeometry>
        </mxCell>
        <mxCell id="s1b5WdfS_iwDhDCuZPvK-253" style="shape=partialRectangle;html=1;whiteSpace=wrap;connectable=0;strokeColor=inherit;overflow=hidden;fillColor=none;top=0;left=0;bottom=0;right=0;pointerEvents=1;fontSize=16;" vertex="1" parent="s1b5WdfS_iwDhDCuZPvK-251">
          <mxGeometry x="17" width="17" height="10" as="geometry">
            <mxRectangle width="17" height="10" as="alternateBounds" />
          </mxGeometry>
        </mxCell>
        <mxCell id="s1b5WdfS_iwDhDCuZPvK-254" style="shape=partialRectangle;html=1;whiteSpace=wrap;connectable=0;strokeColor=inherit;overflow=hidden;fillColor=none;top=0;left=0;bottom=0;right=0;pointerEvents=1;fontSize=16;" vertex="1" parent="s1b5WdfS_iwDhDCuZPvK-251">
          <mxGeometry x="34" width="17" height="10" as="geometry">
            <mxRectangle width="17" height="10" as="alternateBounds" />
          </mxGeometry>
        </mxCell>
        <mxCell id="s1b5WdfS_iwDhDCuZPvK-255" style="shape=partialRectangle;html=1;whiteSpace=wrap;connectable=0;strokeColor=inherit;overflow=hidden;fillColor=none;top=0;left=0;bottom=0;right=0;pointerEvents=1;fontSize=16;" vertex="1" parent="s1b5WdfS_iwDhDCuZPvK-251">
          <mxGeometry x="51" width="17" height="10" as="geometry">
            <mxRectangle width="17" height="10" as="alternateBounds" />
          </mxGeometry>
        </mxCell>
        <mxCell id="s1b5WdfS_iwDhDCuZPvK-256" style="shape=partialRectangle;html=1;whiteSpace=wrap;connectable=0;strokeColor=inherit;overflow=hidden;fillColor=none;top=0;left=0;bottom=0;right=0;pointerEvents=1;fontSize=16;" vertex="1" parent="s1b5WdfS_iwDhDCuZPvK-251">
          <mxGeometry x="68" width="17" height="10" as="geometry">
            <mxRectangle width="17" height="10" as="alternateBounds" />
          </mxGeometry>
        </mxCell>
        <mxCell id="s1b5WdfS_iwDhDCuZPvK-257" style="shape=tableRow;horizontal=0;startSize=0;swimlaneHead=0;swimlaneBody=0;strokeColor=inherit;top=0;left=0;bottom=0;right=0;collapsible=0;dropTarget=0;fillColor=none;points=[[0,0.5],[1,0.5]];portConstraint=eastwest;fontSize=16;" vertex="1" parent="s1b5WdfS_iwDhDCuZPvK-238">
          <mxGeometry y="30" width="85" height="10" as="geometry" />
        </mxCell>
        <mxCell id="s1b5WdfS_iwDhDCuZPvK-258" style="shape=partialRectangle;html=1;whiteSpace=wrap;connectable=0;strokeColor=inherit;overflow=hidden;fillColor=none;top=0;left=0;bottom=0;right=0;pointerEvents=1;fontSize=16;" vertex="1" parent="s1b5WdfS_iwDhDCuZPvK-257">
          <mxGeometry width="17" height="10" as="geometry">
            <mxRectangle width="17" height="10" as="alternateBounds" />
          </mxGeometry>
        </mxCell>
        <mxCell id="s1b5WdfS_iwDhDCuZPvK-259" style="shape=partialRectangle;html=1;whiteSpace=wrap;connectable=0;strokeColor=inherit;overflow=hidden;fillColor=none;top=0;left=0;bottom=0;right=0;pointerEvents=1;fontSize=16;" vertex="1" parent="s1b5WdfS_iwDhDCuZPvK-257">
          <mxGeometry x="17" width="17" height="10" as="geometry">
            <mxRectangle width="17" height="10" as="alternateBounds" />
          </mxGeometry>
        </mxCell>
        <mxCell id="s1b5WdfS_iwDhDCuZPvK-260" style="shape=partialRectangle;html=1;whiteSpace=wrap;connectable=0;strokeColor=inherit;overflow=hidden;fillColor=none;top=0;left=0;bottom=0;right=0;pointerEvents=1;fontSize=16;" vertex="1" parent="s1b5WdfS_iwDhDCuZPvK-257">
          <mxGeometry x="34" width="17" height="10" as="geometry">
            <mxRectangle width="17" height="10" as="alternateBounds" />
          </mxGeometry>
        </mxCell>
        <mxCell id="s1b5WdfS_iwDhDCuZPvK-261" style="shape=partialRectangle;html=1;whiteSpace=wrap;connectable=0;strokeColor=inherit;overflow=hidden;fillColor=none;top=0;left=0;bottom=0;right=0;pointerEvents=1;fontSize=16;" vertex="1" parent="s1b5WdfS_iwDhDCuZPvK-257">
          <mxGeometry x="51" width="17" height="10" as="geometry">
            <mxRectangle width="17" height="10" as="alternateBounds" />
          </mxGeometry>
        </mxCell>
        <mxCell id="s1b5WdfS_iwDhDCuZPvK-262" style="shape=partialRectangle;html=1;whiteSpace=wrap;connectable=0;strokeColor=inherit;overflow=hidden;fillColor=none;top=0;left=0;bottom=0;right=0;pointerEvents=1;fontSize=16;" vertex="1" parent="s1b5WdfS_iwDhDCuZPvK-257">
          <mxGeometry x="68" width="17" height="10" as="geometry">
            <mxRectangle width="17" height="10" as="alternateBounds" />
          </mxGeometry>
        </mxCell>
        <mxCell id="s1b5WdfS_iwDhDCuZPvK-263" style="shape=tableRow;horizontal=0;startSize=0;swimlaneHead=0;swimlaneBody=0;strokeColor=inherit;top=0;left=0;bottom=0;right=0;collapsible=0;dropTarget=0;fillColor=none;points=[[0,0.5],[1,0.5]];portConstraint=eastwest;fontSize=16;" vertex="1" parent="s1b5WdfS_iwDhDCuZPvK-238">
          <mxGeometry y="40" width="85" height="10" as="geometry" />
        </mxCell>
        <mxCell id="s1b5WdfS_iwDhDCuZPvK-264" style="shape=partialRectangle;html=1;whiteSpace=wrap;connectable=0;strokeColor=inherit;overflow=hidden;fillColor=none;top=0;left=0;bottom=0;right=0;pointerEvents=1;fontSize=16;" vertex="1" parent="s1b5WdfS_iwDhDCuZPvK-263">
          <mxGeometry width="17" height="10" as="geometry">
            <mxRectangle width="17" height="10" as="alternateBounds" />
          </mxGeometry>
        </mxCell>
        <mxCell id="s1b5WdfS_iwDhDCuZPvK-265" style="shape=partialRectangle;html=1;whiteSpace=wrap;connectable=0;strokeColor=inherit;overflow=hidden;fillColor=none;top=0;left=0;bottom=0;right=0;pointerEvents=1;fontSize=16;" vertex="1" parent="s1b5WdfS_iwDhDCuZPvK-263">
          <mxGeometry x="17" width="17" height="10" as="geometry">
            <mxRectangle width="17" height="10" as="alternateBounds" />
          </mxGeometry>
        </mxCell>
        <mxCell id="s1b5WdfS_iwDhDCuZPvK-266" style="shape=partialRectangle;html=1;whiteSpace=wrap;connectable=0;strokeColor=inherit;overflow=hidden;fillColor=none;top=0;left=0;bottom=0;right=0;pointerEvents=1;fontSize=16;" vertex="1" parent="s1b5WdfS_iwDhDCuZPvK-263">
          <mxGeometry x="34" width="17" height="10" as="geometry">
            <mxRectangle width="17" height="10" as="alternateBounds" />
          </mxGeometry>
        </mxCell>
        <mxCell id="s1b5WdfS_iwDhDCuZPvK-267" style="shape=partialRectangle;html=1;whiteSpace=wrap;connectable=0;strokeColor=inherit;overflow=hidden;fillColor=none;top=0;left=0;bottom=0;right=0;pointerEvents=1;fontSize=16;" vertex="1" parent="s1b5WdfS_iwDhDCuZPvK-263">
          <mxGeometry x="51" width="17" height="10" as="geometry">
            <mxRectangle width="17" height="10" as="alternateBounds" />
          </mxGeometry>
        </mxCell>
        <mxCell id="s1b5WdfS_iwDhDCuZPvK-268" style="shape=partialRectangle;html=1;whiteSpace=wrap;connectable=0;strokeColor=inherit;overflow=hidden;fillColor=none;top=0;left=0;bottom=0;right=0;pointerEvents=1;fontSize=16;" vertex="1" parent="s1b5WdfS_iwDhDCuZPvK-263">
          <mxGeometry x="68" width="17" height="10" as="geometry">
            <mxRectangle width="17" height="10" as="alternateBounds" />
          </mxGeometry>
        </mxCell>
        <mxCell id="s1b5WdfS_iwDhDCuZPvK-269" style="shape=tableRow;horizontal=0;startSize=0;swimlaneHead=0;swimlaneBody=0;strokeColor=inherit;top=0;left=0;bottom=0;right=0;collapsible=0;dropTarget=0;fillColor=none;points=[[0,0.5],[1,0.5]];portConstraint=eastwest;fontSize=16;" vertex="1" parent="s1b5WdfS_iwDhDCuZPvK-238">
          <mxGeometry y="50" width="85" height="10" as="geometry" />
        </mxCell>
        <mxCell id="s1b5WdfS_iwDhDCuZPvK-270" style="shape=partialRectangle;html=1;whiteSpace=wrap;connectable=0;strokeColor=inherit;overflow=hidden;fillColor=none;top=0;left=0;bottom=0;right=0;pointerEvents=1;fontSize=16;" vertex="1" parent="s1b5WdfS_iwDhDCuZPvK-269">
          <mxGeometry width="17" height="10" as="geometry">
            <mxRectangle width="17" height="10" as="alternateBounds" />
          </mxGeometry>
        </mxCell>
        <mxCell id="s1b5WdfS_iwDhDCuZPvK-271" style="shape=partialRectangle;html=1;whiteSpace=wrap;connectable=0;strokeColor=inherit;overflow=hidden;fillColor=none;top=0;left=0;bottom=0;right=0;pointerEvents=1;fontSize=16;" vertex="1" parent="s1b5WdfS_iwDhDCuZPvK-269">
          <mxGeometry x="17" width="17" height="10" as="geometry">
            <mxRectangle width="17" height="10" as="alternateBounds" />
          </mxGeometry>
        </mxCell>
        <mxCell id="s1b5WdfS_iwDhDCuZPvK-272" style="shape=partialRectangle;html=1;whiteSpace=wrap;connectable=0;strokeColor=inherit;overflow=hidden;fillColor=none;top=0;left=0;bottom=0;right=0;pointerEvents=1;fontSize=16;" vertex="1" parent="s1b5WdfS_iwDhDCuZPvK-269">
          <mxGeometry x="34" width="17" height="10" as="geometry">
            <mxRectangle width="17" height="10" as="alternateBounds" />
          </mxGeometry>
        </mxCell>
        <mxCell id="s1b5WdfS_iwDhDCuZPvK-273" style="shape=partialRectangle;html=1;whiteSpace=wrap;connectable=0;strokeColor=inherit;overflow=hidden;fillColor=none;top=0;left=0;bottom=0;right=0;pointerEvents=1;fontSize=16;" vertex="1" parent="s1b5WdfS_iwDhDCuZPvK-269">
          <mxGeometry x="51" width="17" height="10" as="geometry">
            <mxRectangle width="17" height="10" as="alternateBounds" />
          </mxGeometry>
        </mxCell>
        <mxCell id="s1b5WdfS_iwDhDCuZPvK-274" style="shape=partialRectangle;html=1;whiteSpace=wrap;connectable=0;strokeColor=inherit;overflow=hidden;fillColor=none;top=0;left=0;bottom=0;right=0;pointerEvents=1;fontSize=16;" vertex="1" parent="s1b5WdfS_iwDhDCuZPvK-269">
          <mxGeometry x="68" width="17" height="10" as="geometry">
            <mxRectangle width="17" height="10" as="alternateBounds" />
          </mxGeometry>
        </mxCell>
        <mxCell id="s1b5WdfS_iwDhDCuZPvK-275" style="shape=tableRow;horizontal=0;startSize=0;swimlaneHead=0;swimlaneBody=0;strokeColor=inherit;top=0;left=0;bottom=0;right=0;collapsible=0;dropTarget=0;fillColor=none;points=[[0,0.5],[1,0.5]];portConstraint=eastwest;fontSize=16;" vertex="1" parent="s1b5WdfS_iwDhDCuZPvK-238">
          <mxGeometry y="60" width="85" height="10" as="geometry" />
        </mxCell>
        <mxCell id="s1b5WdfS_iwDhDCuZPvK-276" style="shape=partialRectangle;html=1;whiteSpace=wrap;connectable=0;strokeColor=inherit;overflow=hidden;fillColor=none;top=0;left=0;bottom=0;right=0;pointerEvents=1;fontSize=16;" vertex="1" parent="s1b5WdfS_iwDhDCuZPvK-275">
          <mxGeometry width="17" height="10" as="geometry">
            <mxRectangle width="17" height="10" as="alternateBounds" />
          </mxGeometry>
        </mxCell>
        <mxCell id="s1b5WdfS_iwDhDCuZPvK-277" style="shape=partialRectangle;html=1;whiteSpace=wrap;connectable=0;strokeColor=inherit;overflow=hidden;fillColor=none;top=0;left=0;bottom=0;right=0;pointerEvents=1;fontSize=16;" vertex="1" parent="s1b5WdfS_iwDhDCuZPvK-275">
          <mxGeometry x="17" width="17" height="10" as="geometry">
            <mxRectangle width="17" height="10" as="alternateBounds" />
          </mxGeometry>
        </mxCell>
        <mxCell id="s1b5WdfS_iwDhDCuZPvK-278" style="shape=partialRectangle;html=1;whiteSpace=wrap;connectable=0;strokeColor=inherit;overflow=hidden;fillColor=none;top=0;left=0;bottom=0;right=0;pointerEvents=1;fontSize=16;" vertex="1" parent="s1b5WdfS_iwDhDCuZPvK-275">
          <mxGeometry x="34" width="17" height="10" as="geometry">
            <mxRectangle width="17" height="10" as="alternateBounds" />
          </mxGeometry>
        </mxCell>
        <mxCell id="s1b5WdfS_iwDhDCuZPvK-279" style="shape=partialRectangle;html=1;whiteSpace=wrap;connectable=0;strokeColor=inherit;overflow=hidden;fillColor=none;top=0;left=0;bottom=0;right=0;pointerEvents=1;fontSize=16;" vertex="1" parent="s1b5WdfS_iwDhDCuZPvK-275">
          <mxGeometry x="51" width="17" height="10" as="geometry">
            <mxRectangle width="17" height="10" as="alternateBounds" />
          </mxGeometry>
        </mxCell>
        <mxCell id="s1b5WdfS_iwDhDCuZPvK-280" style="shape=partialRectangle;html=1;whiteSpace=wrap;connectable=0;strokeColor=inherit;overflow=hidden;fillColor=none;top=0;left=0;bottom=0;right=0;pointerEvents=1;fontSize=16;" vertex="1" parent="s1b5WdfS_iwDhDCuZPvK-275">
          <mxGeometry x="68" width="17" height="10" as="geometry">
            <mxRectangle width="17" height="10" as="alternateBounds" />
          </mxGeometry>
        </mxCell>
        <mxCell id="s1b5WdfS_iwDhDCuZPvK-282" value="" style="shape=table;startSize=0;container=1;collapsible=0;childLayout=tableLayout;fontSize=16;fillColor=#ffe6cc;strokeColor=#d79b00;" vertex="1" parent="1">
          <mxGeometry x="1336" y="288" width="17" height="70" as="geometry" />
        </mxCell>
        <mxCell id="s1b5WdfS_iwDhDCuZPvK-283" value="" style="shape=tableRow;horizontal=0;startSize=0;swimlaneHead=0;swimlaneBody=0;strokeColor=#d79b00;top=0;left=0;bottom=0;right=0;collapsible=0;dropTarget=0;fillColor=#ffe6cc;points=[[0,0.5],[1,0.5]];portConstraint=eastwest;fontSize=16;" vertex="1" parent="s1b5WdfS_iwDhDCuZPvK-282">
          <mxGeometry width="17" height="10" as="geometry" />
        </mxCell>
        <mxCell id="s1b5WdfS_iwDhDCuZPvK-284" style="shape=partialRectangle;html=1;whiteSpace=wrap;connectable=0;strokeColor=#d79b00;overflow=hidden;fillColor=#ffe6cc;top=0;left=0;bottom=0;right=0;pointerEvents=1;fontSize=16;" vertex="1" parent="s1b5WdfS_iwDhDCuZPvK-283">
          <mxGeometry width="17" height="10" as="geometry">
            <mxRectangle width="17" height="10" as="alternateBounds" />
          </mxGeometry>
        </mxCell>
        <mxCell id="s1b5WdfS_iwDhDCuZPvK-289" style="shape=tableRow;horizontal=0;startSize=0;swimlaneHead=0;swimlaneBody=0;strokeColor=#d79b00;top=0;left=0;bottom=0;right=0;collapsible=0;dropTarget=0;fillColor=#ffe6cc;points=[[0,0.5],[1,0.5]];portConstraint=eastwest;fontSize=16;" vertex="1" parent="s1b5WdfS_iwDhDCuZPvK-282">
          <mxGeometry y="10" width="17" height="10" as="geometry" />
        </mxCell>
        <mxCell id="s1b5WdfS_iwDhDCuZPvK-290" style="shape=partialRectangle;html=1;whiteSpace=wrap;connectable=0;strokeColor=#d79b00;overflow=hidden;fillColor=#ffe6cc;top=0;left=0;bottom=0;right=0;pointerEvents=1;fontSize=16;" vertex="1" parent="s1b5WdfS_iwDhDCuZPvK-289">
          <mxGeometry width="17" height="10" as="geometry">
            <mxRectangle width="17" height="10" as="alternateBounds" />
          </mxGeometry>
        </mxCell>
        <mxCell id="s1b5WdfS_iwDhDCuZPvK-295" style="shape=tableRow;horizontal=0;startSize=0;swimlaneHead=0;swimlaneBody=0;strokeColor=#d79b00;top=0;left=0;bottom=0;right=0;collapsible=0;dropTarget=0;fillColor=#ffe6cc;points=[[0,0.5],[1,0.5]];portConstraint=eastwest;fontSize=16;" vertex="1" parent="s1b5WdfS_iwDhDCuZPvK-282">
          <mxGeometry y="20" width="17" height="10" as="geometry" />
        </mxCell>
        <mxCell id="s1b5WdfS_iwDhDCuZPvK-296" style="shape=partialRectangle;html=1;whiteSpace=wrap;connectable=0;strokeColor=#d79b00;overflow=hidden;fillColor=#ffe6cc;top=0;left=0;bottom=0;right=0;pointerEvents=1;fontSize=16;" vertex="1" parent="s1b5WdfS_iwDhDCuZPvK-295">
          <mxGeometry width="17" height="10" as="geometry">
            <mxRectangle width="17" height="10" as="alternateBounds" />
          </mxGeometry>
        </mxCell>
        <mxCell id="s1b5WdfS_iwDhDCuZPvK-301" style="shape=tableRow;horizontal=0;startSize=0;swimlaneHead=0;swimlaneBody=0;strokeColor=#d79b00;top=0;left=0;bottom=0;right=0;collapsible=0;dropTarget=0;fillColor=#ffe6cc;points=[[0,0.5],[1,0.5]];portConstraint=eastwest;fontSize=16;" vertex="1" parent="s1b5WdfS_iwDhDCuZPvK-282">
          <mxGeometry y="30" width="17" height="10" as="geometry" />
        </mxCell>
        <mxCell id="s1b5WdfS_iwDhDCuZPvK-302" style="shape=partialRectangle;html=1;whiteSpace=wrap;connectable=0;strokeColor=#d79b00;overflow=hidden;fillColor=#ffe6cc;top=0;left=0;bottom=0;right=0;pointerEvents=1;fontSize=16;" vertex="1" parent="s1b5WdfS_iwDhDCuZPvK-301">
          <mxGeometry width="17" height="10" as="geometry">
            <mxRectangle width="17" height="10" as="alternateBounds" />
          </mxGeometry>
        </mxCell>
        <mxCell id="s1b5WdfS_iwDhDCuZPvK-307" style="shape=tableRow;horizontal=0;startSize=0;swimlaneHead=0;swimlaneBody=0;strokeColor=#d79b00;top=0;left=0;bottom=0;right=0;collapsible=0;dropTarget=0;fillColor=#ffe6cc;points=[[0,0.5],[1,0.5]];portConstraint=eastwest;fontSize=16;" vertex="1" parent="s1b5WdfS_iwDhDCuZPvK-282">
          <mxGeometry y="40" width="17" height="10" as="geometry" />
        </mxCell>
        <mxCell id="s1b5WdfS_iwDhDCuZPvK-308" style="shape=partialRectangle;html=1;whiteSpace=wrap;connectable=0;strokeColor=#d79b00;overflow=hidden;fillColor=#ffe6cc;top=0;left=0;bottom=0;right=0;pointerEvents=1;fontSize=16;" vertex="1" parent="s1b5WdfS_iwDhDCuZPvK-307">
          <mxGeometry width="17" height="10" as="geometry">
            <mxRectangle width="17" height="10" as="alternateBounds" />
          </mxGeometry>
        </mxCell>
        <mxCell id="s1b5WdfS_iwDhDCuZPvK-313" style="shape=tableRow;horizontal=0;startSize=0;swimlaneHead=0;swimlaneBody=0;strokeColor=#d79b00;top=0;left=0;bottom=0;right=0;collapsible=0;dropTarget=0;fillColor=#ffe6cc;points=[[0,0.5],[1,0.5]];portConstraint=eastwest;fontSize=16;" vertex="1" parent="s1b5WdfS_iwDhDCuZPvK-282">
          <mxGeometry y="50" width="17" height="10" as="geometry" />
        </mxCell>
        <mxCell id="s1b5WdfS_iwDhDCuZPvK-314" style="shape=partialRectangle;html=1;whiteSpace=wrap;connectable=0;strokeColor=#d79b00;overflow=hidden;fillColor=#ffe6cc;top=0;left=0;bottom=0;right=0;pointerEvents=1;fontSize=16;" vertex="1" parent="s1b5WdfS_iwDhDCuZPvK-313">
          <mxGeometry width="17" height="10" as="geometry">
            <mxRectangle width="17" height="10" as="alternateBounds" />
          </mxGeometry>
        </mxCell>
        <mxCell id="s1b5WdfS_iwDhDCuZPvK-319" style="shape=tableRow;horizontal=0;startSize=0;swimlaneHead=0;swimlaneBody=0;strokeColor=#d79b00;top=0;left=0;bottom=0;right=0;collapsible=0;dropTarget=0;fillColor=#ffe6cc;points=[[0,0.5],[1,0.5]];portConstraint=eastwest;fontSize=16;" vertex="1" parent="s1b5WdfS_iwDhDCuZPvK-282">
          <mxGeometry y="60" width="17" height="10" as="geometry" />
        </mxCell>
        <mxCell id="s1b5WdfS_iwDhDCuZPvK-320" style="shape=partialRectangle;html=1;whiteSpace=wrap;connectable=0;strokeColor=#d79b00;overflow=hidden;fillColor=#ffe6cc;top=0;left=0;bottom=0;right=0;pointerEvents=1;fontSize=16;" vertex="1" parent="s1b5WdfS_iwDhDCuZPvK-319">
          <mxGeometry width="17" height="10" as="geometry">
            <mxRectangle width="17" height="10" as="alternateBounds" />
          </mxGeometry>
        </mxCell>
        <mxCell id="s1b5WdfS_iwDhDCuZPvK-325" value="Calculate max simiarity&lt;div&gt;(Most likely error)&lt;/div&gt;" style="text;html=1;align=center;verticalAlign=middle;whiteSpace=wrap;rounded=0;" vertex="1" parent="1">
          <mxGeometry x="1171" y="368" width="150" height="30" as="geometry" />
        </mxCell>
      </root>
    </mxGraphModel>
  </diagram>
</mxfile>
